M48
; DRILL file KiCad 10.0.5 date 2026-08-29T19:09:31
; FORMAT={-:-/ absolute / metric / decimal}
; #@! TF.CreationDate,2026-08-29T19:09:31-04:00
; #@! TF.GenerationSoftware,Kicad,Pcbnew,10.0.5
; #@! TF.FileFunction,NonPlated,1,2,NPTH
FMAT,2
METRIC
; #@! TA.AperFunction,NonPlated,NPTH,ComponentDrill
T1C1.700
; #@! TA.AperFunction,NonPlated,NPTH,ComponentDrill
T2C4.000
%
G90
G05
T1
X104.14Y-95.25
X104.14Y-114.3
X104.23Y-76.2
X114.3Y-95.25
X114.3Y-114.3
X114.39Y-76.2
X123.19Y-76.2
X123.19Y-95.25
X123.19Y-114.3
X133.35Y-76.2
X133.35Y-95.25
X133.35Y-114.3
X142.24Y-76.2
X142.24Y-95.25
X142.24Y-114.3
X152.4Y-76.2
X152.4Y-95.25
X152.4Y-114.3
X161.29Y-76.2
X161.29Y-95.25
X161.29Y-114.3
X171.45Y-76.2
X171.45Y-95.25
X171.45Y-114.3
T2
X109.22Y-95.25
X109.22Y-114.3
X109.31Y-76.2
X128.27Y-76.2
X128.27Y-95.25
X128.27Y-114.3
X147.32Y-76.2
X147.32Y-95.25
X147.32Y-114.3
X166.37Y-76.2
X166.37Y-95.25
X166.37Y-114.3
M30
