%TF.GenerationSoftware,KiCad,Pcbnew,10.0.5*%
%TF.CreationDate,2026-09-12T22:57:18-04:00*%
%TF.ProjectId,mk1,6d6b312e-6b69-4636-9164-5f7063625858,rev?*%
%TF.SameCoordinates,Original*%
%TF.FileFunction,Copper,L1,Top*%
%TF.FilePolarity,Positive*%
%FSLAX46Y46*%
G04 Gerber Fmt 4.6, Leading zero omitted, Abs format (unit mm)*
G04 Created by KiCad (PCBNEW 10.0.5) date 2026-09-12 22:57:18*
%MOMM*%
%LPD*%
G01*
G04 APERTURE LIST*
G04 Aperture macros list*
%AMRoundRect*
0 Rectangle with rounded corners*
0 $1 Rounding radius*
0 $2 $3 $4 $5 $6 $7 $8 $9 X,Y pos of 4 corners*
0 Add a 4 corners polygon primitive as box body*
4,1,4,$2,$3,$4,$5,$6,$7,$8,$9,$2,$3,0*
0 Add four circle primitives for the rounded corners*
1,1,$1+$1,$2,$3*
1,1,$1+$1,$4,$5*
1,1,$1+$1,$6,$7*
1,1,$1+$1,$8,$9*
0 Add four rect primitives between the rounded corners*
20,1,$1+$1,$2,$3,$4,$5,0*
20,1,$1+$1,$4,$5,$6,$7,0*
20,1,$1+$1,$6,$7,$8,$9,0*
20,1,$1+$1,$8,$9,$2,$3,0*%
G04 Aperture macros list end*
%TA.AperFunction,ComponentPad*%
%ADD10R,2.000000X2.000000*%
%TD*%
%TA.AperFunction,ComponentPad*%
%ADD11C,2.000000*%
%TD*%
%TA.AperFunction,ComponentPad*%
%ADD12R,3.200000X2.000000*%
%TD*%
%TA.AperFunction,ComponentPad*%
%ADD13RoundRect,0.250000X-0.550000X-0.550000X0.550000X-0.550000X0.550000X0.550000X-0.550000X0.550000X0*%
%TD*%
%TA.AperFunction,ComponentPad*%
%ADD14C,1.600000*%
%TD*%
%TA.AperFunction,ComponentPad*%
%ADD15C,2.200000*%
%TD*%
%TA.AperFunction,ComponentPad*%
%ADD16R,3.500000X1.700000*%
%TD*%
%TA.AperFunction,ComponentPad*%
%ADD17O,3.600000X1.700000*%
%TD*%
%TA.AperFunction,ComponentPad*%
%ADD18O,3.700000X1.700000*%
%TD*%
%TA.AperFunction,Conductor*%
%ADD19C,0.300000*%
%TD*%
G04 APERTURE END LIST*
D10*
%TO.P,SW14,A,A_A*%
%TO.N,/ENC2A*%
X101290100Y-52971200D03*
D11*
%TO.P,SW14,B,B_B*%
%TO.N,GND*%
X101290100Y-57971200D03*
%TO.P,SW14,C,C_C*%
%TO.N,/ENC2B*%
X101290100Y-55471200D03*
D12*
%TO.P,SW14,MP*%
%TO.N,N/C*%
X108790100Y-49871200D03*
X108790100Y-61071200D03*
D11*
%TO.P,SW14,S1*%
X115790100Y-57971200D03*
%TO.P,SW14,S2*%
X115790100Y-52971200D03*
%TD*%
D13*
%TO.P,D7,1,K_1*%
%TO.N,Net-(D7-K)*%
X147500000Y-84500000D03*
D14*
%TO.P,D7,2,A_2*%
%TO.N,/COL2*%
X150040000Y-84500000D03*
%TD*%
D15*
%TO.P,SW8,1,1_1*%
%TO.N,Net-(D8-K)*%
X149860000Y-90170000D03*
%TO.P,SW8,2,2_2*%
%TO.N,/ROW1*%
X143510000Y-92710000D03*
%TD*%
%TO.P,SW6,1,1_1*%
%TO.N,Net-(D6-K)*%
X168910000Y-109220000D03*
%TO.P,SW6,2,2_2*%
%TO.N,/ROW2*%
X162560000Y-111760000D03*
%TD*%
%TO.P,SW2,1,1_1*%
%TO.N,Net-(D2-K)*%
X168910000Y-71120000D03*
%TO.P,SW2,2,2_2*%
%TO.N,/ROW0*%
X162560000Y-73660000D03*
%TD*%
D13*
%TO.P,D10,1,K_1*%
%TO.N,Net-(D10-K)*%
X128500000Y-84500000D03*
D14*
%TO.P,D10,2,A_2*%
%TO.N,/COL1*%
X131040000Y-84500000D03*
%TD*%
D13*
%TO.P,D2,1,K_1*%
%TO.N,Net-(D2-K)*%
X166500000Y-84500000D03*
D14*
%TO.P,D2,2,A_2*%
%TO.N,/COL3*%
X169040000Y-84500000D03*
%TD*%
D16*
%TO.P,U1,1,PA02_A0_D0_1*%
%TO.N,/ROW0*%
X128750000Y-40760000D03*
D17*
%TO.P,U1,2,PA4_A1_D1_2*%
%TO.N,/ROW1*%
X128750000Y-43300000D03*
%TO.P,U1,3,PA10_A2_D2_3*%
%TO.N,/ROW2*%
X128750000Y-45840000D03*
%TO.P,U1,4,PA11_A3_D3_4*%
%TO.N,/COL0*%
X128750000Y-48380000D03*
%TO.P,U1,5,PA8_A4_D4_SDA_5*%
%TO.N,/COL1*%
X128750000Y-50920000D03*
%TO.P,U1,6,PA9_A5_D5_SCL_6*%
%TO.N,/COL2*%
X128750000Y-53460000D03*
%TO.P,U1,7,PB08_A6_D6_TX_7*%
%TO.N,/COL3*%
X128750000Y-56000000D03*
%TO.P,U1,8,PB09_A7_D7_RX_8*%
%TO.N,/ENC1A*%
X146000000Y-56000000D03*
%TO.P,U1,9,PA7_A8_D8_SCK_9*%
%TO.N,/ENC1B*%
X146000000Y-53460000D03*
%TO.P,U1,10,PA5_A9_D9_MISO_10*%
%TO.N,/ENC2A*%
X146000000Y-50920000D03*
D18*
%TO.P,U1,11,PA6_A10_D10_MOSI_11*%
%TO.N,/ENC2B*%
X146000000Y-48380000D03*
%TO.P,U1,12,3V3_12*%
%TO.N,unconnected-(U1-3V3-Pad12)*%
X146000000Y-45840000D03*
%TO.P,U1,13,GND_13*%
%TO.N,unconnected-(U1-GND-Pad13)*%
X146000000Y-43300000D03*
%TO.P,U1,14,5V_14*%
%TO.N,unconnected-(U1-5V-Pad14)*%
X146000000Y-40760000D03*
%TD*%
D13*
%TO.P,D8,1,K_1*%
%TO.N,Net-(D8-K)*%
X147350000Y-103500000D03*
D14*
%TO.P,D8,2,A_2*%
%TO.N,/COL2*%
X149890000Y-103500000D03*
%TD*%
D15*
%TO.P,SW7,1,1_1*%
%TO.N,Net-(D7-K)*%
X149860000Y-71120000D03*
%TO.P,SW7,2,2_2*%
%TO.N,/ROW0*%
X143510000Y-73660000D03*
%TD*%
%TO.P,SW1,1,1_1*%
%TO.N,Net-(D1-K)*%
X111850000Y-71120000D03*
%TO.P,SW1,2,2_2*%
%TO.N,/ROW0*%
X105500000Y-73660000D03*
%TD*%
D10*
%TO.P,SW13,A,A_A*%
%TO.N,/ENC1A*%
X158628900Y-53445600D03*
D11*
%TO.P,SW13,B,B_B*%
%TO.N,GND*%
X158628900Y-58445600D03*
%TO.P,SW13,C,C_C*%
%TO.N,/ENC1B*%
X158628900Y-55945600D03*
D12*
%TO.P,SW13,MP*%
%TO.N,N/C*%
X166128900Y-50345600D03*
X166128900Y-61545600D03*
D11*
%TO.P,SW13,S1*%
X173128900Y-58445600D03*
%TO.P,SW13,S2*%
X173128900Y-53445600D03*
%TD*%
D15*
%TO.P,SW4,1,1_1*%
%TO.N,Net-(D4-K)*%
X111760000Y-109220000D03*
%TO.P,SW4,2,2_2*%
%TO.N,/ROW2*%
X105410000Y-111760000D03*
%TD*%
D13*
%TO.P,D4,1,K_1*%
%TO.N,Net-(D4-K)*%
X109350000Y-122500000D03*
D14*
%TO.P,D4,2,A_2*%
%TO.N,/COL0*%
X111890000Y-122500000D03*
%TD*%
D13*
%TO.P,D12,1,K_1*%
%TO.N,Net-(D12-K)*%
X128500000Y-122500000D03*
D14*
%TO.P,D12,2,A_2*%
%TO.N,/COL1*%
X131040000Y-122500000D03*
%TD*%
D15*
%TO.P,SW10,1,1_1*%
%TO.N,Net-(D10-K)*%
X130810000Y-71120000D03*
%TO.P,SW10,2,2_2*%
%TO.N,/ROW0*%
X124460000Y-73660000D03*
%TD*%
D13*
%TO.P,D3,1,K_1*%
%TO.N,Net-(D3-K)*%
X109000000Y-103500000D03*
D14*
%TO.P,D3,2,A_2*%
%TO.N,/COL0*%
X111540000Y-103500000D03*
%TD*%
D13*
%TO.P,D6,1,K_1*%
%TO.N,Net-(D6-K)*%
X166850000Y-122500000D03*
D14*
%TO.P,D6,2,A_2*%
%TO.N,/COL3*%
X169390000Y-122500000D03*
%TD*%
D15*
%TO.P,SW11,1,1_1*%
%TO.N,Net-(D11-K)*%
X130810000Y-90170000D03*
%TO.P,SW11,2,2_2*%
%TO.N,/ROW1*%
X124460000Y-92710000D03*
%TD*%
D13*
%TO.P,D5,1,K_1*%
%TO.N,Net-(D5-K)*%
X166500000Y-103500000D03*
D14*
%TO.P,D5,2,A_2*%
%TO.N,/COL3*%
X169040000Y-103500000D03*
%TD*%
D13*
%TO.P,D9,1,K_1*%
%TO.N,Net-(D9-K)*%
X147150000Y-122500000D03*
D14*
%TO.P,D9,2,A_2*%
%TO.N,/COL2*%
X149690000Y-122500000D03*
%TD*%
D15*
%TO.P,SW5,1,1_1*%
%TO.N,Net-(D5-K)*%
X168910000Y-90170000D03*
%TO.P,SW5,2,2_2*%
%TO.N,/ROW1*%
X162560000Y-92710000D03*
%TD*%
D13*
%TO.P,D1,1,K_1*%
%TO.N,Net-(D1-K)*%
X109500000Y-84500000D03*
D14*
%TO.P,D1,2,A_2*%
%TO.N,/COL0*%
X112040000Y-84500000D03*
%TD*%
D15*
%TO.P,SW9,1,1_1*%
%TO.N,Net-(D9-K)*%
X149860000Y-109220000D03*
%TO.P,SW9,2,2_2*%
%TO.N,/ROW2*%
X143510000Y-111760000D03*
%TD*%
%TO.P,SW12,1,1_1*%
%TO.N,Net-(D12-K)*%
X130810000Y-109220000D03*
%TO.P,SW12,2,2_2*%
%TO.N,/ROW2*%
X124460000Y-111760000D03*
%TD*%
D13*
%TO.P,D11,1,K_1*%
%TO.N,Net-(D11-K)*%
X128350000Y-103500000D03*
D14*
%TO.P,D11,2,A_2*%
%TO.N,/COL1*%
X130890000Y-103500000D03*
%TD*%
D15*
%TO.P,SW3,1,1_1*%
%TO.N,Net-(D3-K)*%
X111760000Y-90170000D03*
%TO.P,SW3,2,2_2*%
%TO.N,/ROW1*%
X105410000Y-92710000D03*
%TD*%
%TO.N,/ENC2A*%
D19*
X101290100Y-52971200D02*
X112674600Y-52971200D01*
X145000000Y-50920000D02*
X143848300Y-50920000D01*
X115933300Y-49712500D02*
X142640800Y-49712500D01*
X142640800Y-49712500D02*
X143848300Y-50920000D01*
X112674600Y-52971200D02*
X115933300Y-49712500D01*
%TO.N,GND*%
X101290100Y-57971200D02*
X102674700Y-56586600D01*
X126687100Y-56586600D02*
X128546100Y-58445600D01*
X128546100Y-58445600D02*
X158628900Y-58445600D01*
X102674700Y-56586600D02*
X126687100Y-56586600D01*
%TO.N,/ENC2B*%
X117155700Y-55471200D02*
X101290100Y-55471200D01*
X148201700Y-48380000D02*
X148201700Y-51386400D01*
X147466400Y-52121700D02*
X120505200Y-52121700D01*
X148201700Y-51386400D02*
X147466400Y-52121700D01*
X145000000Y-48380000D02*
X148201700Y-48380000D01*
X120505200Y-52121700D02*
X117155700Y-55471200D01*
%TO.N,/ROW1*%
X162488500Y-92638500D02*
X143581500Y-92638500D01*
X143438500Y-92638500D02*
X124531500Y-92638500D01*
X162560000Y-92710000D02*
X162488500Y-92638500D01*
X143581500Y-92638500D02*
X143510000Y-92710000D01*
X105471700Y-92648300D02*
X124398300Y-92648300D01*
X143510000Y-92710000D02*
X143438500Y-92638500D01*
X124398300Y-92648300D02*
X124460000Y-92710000D01*
X124531500Y-92638500D02*
X124460000Y-92710000D01*
X105410000Y-92710000D02*
X105471700Y-92648300D01*
%TO.N,/ROW2*%
X143448300Y-111698300D02*
X124521700Y-111698300D01*
X143510000Y-111760000D02*
X143448300Y-111698300D01*
X162560000Y-111760000D02*
X162488500Y-111688500D01*
X105471700Y-111698300D02*
X124398300Y-111698300D01*
X124398300Y-111698300D02*
X124460000Y-111760000D01*
X124521700Y-111698300D02*
X124460000Y-111760000D01*
X105410000Y-111760000D02*
X105471700Y-111698300D01*
X143581500Y-111688500D02*
X143510000Y-111760000D01*
X162488500Y-111688500D02*
X143581500Y-111688500D01*
%TO.N,/ROW0*%
X105561700Y-73598300D02*
X124398300Y-73598300D01*
X143581500Y-73588500D02*
X143510000Y-73660000D01*
X124531500Y-73588500D02*
X124460000Y-73660000D01*
X105500000Y-73660000D02*
X105561700Y-73598300D01*
X162488500Y-73588500D02*
X143581500Y-73588500D01*
X124398300Y-73598300D02*
X124460000Y-73660000D01*
X143510000Y-73660000D02*
X143438500Y-73588500D01*
X162560000Y-73660000D02*
X162488500Y-73588500D01*
X143438500Y-73588500D02*
X124531500Y-73588500D01*
%TO.N,/ENC1B*%
X158628900Y-55945600D02*
X156143300Y-53460000D01*
X156143300Y-53460000D02*
X145000000Y-53460000D01*
%TD*%
M02*
