%TF.GenerationSoftware,KiCad,Pcbnew,10.0.5*%
%TF.CreationDate,2026-09-12T22:57:18-04:00*%
%TF.ProjectId,mk1,6d6b312e-6b69-4636-9164-5f7063625858,rev?*%
%TF.SameCoordinates,Original*%
%TF.FileFunction,Copper,L2,Bot*%
%TF.FilePolarity,Positive*%
%FSLAX46Y46*%
G04 Gerber Fmt 4.6, Leading zero omitted, Abs format (unit mm)*
G04 Created by KiCad (PCBNEW 10.0.5) date 2026-09-12 22:57:18*
%MOMM*%
%LPD*%
G01*
G04 APERTURE LIST*
G04 Aperture macros list*
%AMRoundRect*
0 Rectangle with rounded corners*
0 $1 Rounding radius*
0 $2 $3 $4 $5 $6 $7 $8 $9 X,Y pos of 4 corners*
0 Add a 4 corners polygon primitive as box body*
4,1,4,$2,$3,$4,$5,$6,$7,$8,$9,$2,$3,0*
0 Add four circle primitives for the rounded corners*
1,1,$1+$1,$2,$3*
1,1,$1+$1,$4,$5*
1,1,$1+$1,$6,$7*
1,1,$1+$1,$8,$9*
0 Add four rect primitives between the rounded corners*
20,1,$1+$1,$2,$3,$4,$5,0*
20,1,$1+$1,$4,$5,$6,$7,0*
20,1,$1+$1,$6,$7,$8,$9,0*
20,1,$1+$1,$8,$9,$2,$3,0*%
G04 Aperture macros list end*
%TA.AperFunction,ComponentPad*%
%ADD10R,2.000000X2.000000*%
%TD*%
%TA.AperFunction,ComponentPad*%
%ADD11C,2.000000*%
%TD*%
%TA.AperFunction,ComponentPad*%
%ADD12R,3.200000X2.000000*%
%TD*%
%TA.AperFunction,ComponentPad*%
%ADD13RoundRect,0.250000X-0.550000X-0.550000X0.550000X-0.550000X0.550000X0.550000X-0.550000X0.550000X0*%
%TD*%
%TA.AperFunction,ComponentPad*%
%ADD14C,1.600000*%
%TD*%
%TA.AperFunction,ComponentPad*%
%ADD15C,2.200000*%
%TD*%
%TA.AperFunction,ComponentPad*%
%ADD16R,3.500000X1.700000*%
%TD*%
%TA.AperFunction,ComponentPad*%
%ADD17O,3.600000X1.700000*%
%TD*%
%TA.AperFunction,ComponentPad*%
%ADD18O,3.700000X1.700000*%
%TD*%
%TA.AperFunction,Conductor*%
%ADD19C,0.300000*%
%TD*%
G04 APERTURE END LIST*
D10*
%TO.P,SW14,A,A_A*%
%TO.N,/ENC2A*%
X101290100Y-52971200D03*
D11*
%TO.P,SW14,B,B_B*%
%TO.N,GND*%
X101290100Y-57971200D03*
%TO.P,SW14,C,C_C*%
%TO.N,/ENC2B*%
X101290100Y-55471200D03*
D12*
%TO.P,SW14,MP*%
%TO.N,N/C*%
X108790100Y-49871200D03*
X108790100Y-61071200D03*
D11*
%TO.P,SW14,S1*%
X115790100Y-57971200D03*
%TO.P,SW14,S2*%
X115790100Y-52971200D03*
%TD*%
D13*
%TO.P,D7,1,K_1*%
%TO.N,Net-(D7-K)*%
X147500000Y-84500000D03*
D14*
%TO.P,D7,2,A_2*%
%TO.N,/COL2*%
X150040000Y-84500000D03*
%TD*%
D15*
%TO.P,SW8,1,1_1*%
%TO.N,Net-(D8-K)*%
X149860000Y-90170000D03*
%TO.P,SW8,2,2_2*%
%TO.N,/ROW1*%
X143510000Y-92710000D03*
%TD*%
%TO.P,SW6,1,1_1*%
%TO.N,Net-(D6-K)*%
X168910000Y-109220000D03*
%TO.P,SW6,2,2_2*%
%TO.N,/ROW2*%
X162560000Y-111760000D03*
%TD*%
%TO.P,SW2,1,1_1*%
%TO.N,Net-(D2-K)*%
X168910000Y-71120000D03*
%TO.P,SW2,2,2_2*%
%TO.N,/ROW0*%
X162560000Y-73660000D03*
%TD*%
D13*
%TO.P,D10,1,K_1*%
%TO.N,Net-(D10-K)*%
X128500000Y-84500000D03*
D14*
%TO.P,D10,2,A_2*%
%TO.N,/COL1*%
X131040000Y-84500000D03*
%TD*%
D13*
%TO.P,D2,1,K_1*%
%TO.N,Net-(D2-K)*%
X166500000Y-84500000D03*
D14*
%TO.P,D2,2,A_2*%
%TO.N,/COL3*%
X169040000Y-84500000D03*
%TD*%
D16*
%TO.P,U1,1,PA02_A0_D0_1*%
%TO.N,/ROW0*%
X128750000Y-40760000D03*
D17*
%TO.P,U1,2,PA4_A1_D1_2*%
%TO.N,/ROW1*%
X128750000Y-43300000D03*
%TO.P,U1,3,PA10_A2_D2_3*%
%TO.N,/ROW2*%
X128750000Y-45840000D03*
%TO.P,U1,4,PA11_A3_D3_4*%
%TO.N,/COL0*%
X128750000Y-48380000D03*
%TO.P,U1,5,PA8_A4_D4_SDA_5*%
%TO.N,/COL1*%
X128750000Y-50920000D03*
%TO.P,U1,6,PA9_A5_D5_SCL_6*%
%TO.N,/COL2*%
X128750000Y-53460000D03*
%TO.P,U1,7,PB08_A6_D6_TX_7*%
%TO.N,/COL3*%
X128750000Y-56000000D03*
%TO.P,U1,8,PB09_A7_D7_RX_8*%
%TO.N,/ENC1A*%
X146000000Y-56000000D03*
%TO.P,U1,9,PA7_A8_D8_SCK_9*%
%TO.N,/ENC1B*%
X146000000Y-53460000D03*
%TO.P,U1,10,PA5_A9_D9_MISO_10*%
%TO.N,/ENC2A*%
X146000000Y-50920000D03*
D18*
%TO.P,U1,11,PA6_A10_D10_MOSI_11*%
%TO.N,/ENC2B*%
X146000000Y-48380000D03*
%TO.P,U1,12,3V3_12*%
%TO.N,unconnected-(U1-3V3-Pad12)*%
X146000000Y-45840000D03*
%TO.P,U1,13,GND_13*%
%TO.N,unconnected-(U1-GND-Pad13)*%
X146000000Y-43300000D03*
%TO.P,U1,14,5V_14*%
%TO.N,unconnected-(U1-5V-Pad14)*%
X146000000Y-40760000D03*
%TD*%
D13*
%TO.P,D8,1,K_1*%
%TO.N,Net-(D8-K)*%
X147350000Y-103500000D03*
D14*
%TO.P,D8,2,A_2*%
%TO.N,/COL2*%
X149890000Y-103500000D03*
%TD*%
D15*
%TO.P,SW7,1,1_1*%
%TO.N,Net-(D7-K)*%
X149860000Y-71120000D03*
%TO.P,SW7,2,2_2*%
%TO.N,/ROW0*%
X143510000Y-73660000D03*
%TD*%
%TO.P,SW1,1,1_1*%
%TO.N,Net-(D1-K)*%
X111850000Y-71120000D03*
%TO.P,SW1,2,2_2*%
%TO.N,/ROW0*%
X105500000Y-73660000D03*
%TD*%
D10*
%TO.P,SW13,A,A_A*%
%TO.N,/ENC1A*%
X158628900Y-53445600D03*
D11*
%TO.P,SW13,B,B_B*%
%TO.N,GND*%
X158628900Y-58445600D03*
%TO.P,SW13,C,C_C*%
%TO.N,/ENC1B*%
X158628900Y-55945600D03*
D12*
%TO.P,SW13,MP*%
%TO.N,N/C*%
X166128900Y-50345600D03*
X166128900Y-61545600D03*
D11*
%TO.P,SW13,S1*%
X173128900Y-58445600D03*
%TO.P,SW13,S2*%
X173128900Y-53445600D03*
%TD*%
D15*
%TO.P,SW4,1,1_1*%
%TO.N,Net-(D4-K)*%
X111760000Y-109220000D03*
%TO.P,SW4,2,2_2*%
%TO.N,/ROW2*%
X105410000Y-111760000D03*
%TD*%
D13*
%TO.P,D4,1,K_1*%
%TO.N,Net-(D4-K)*%
X109350000Y-122500000D03*
D14*
%TO.P,D4,2,A_2*%
%TO.N,/COL0*%
X111890000Y-122500000D03*
%TD*%
D13*
%TO.P,D12,1,K_1*%
%TO.N,Net-(D12-K)*%
X128500000Y-122500000D03*
D14*
%TO.P,D12,2,A_2*%
%TO.N,/COL1*%
X131040000Y-122500000D03*
%TD*%
D15*
%TO.P,SW10,1,1_1*%
%TO.N,Net-(D10-K)*%
X130810000Y-71120000D03*
%TO.P,SW10,2,2_2*%
%TO.N,/ROW0*%
X124460000Y-73660000D03*
%TD*%
D13*
%TO.P,D3,1,K_1*%
%TO.N,Net-(D3-K)*%
X109000000Y-103500000D03*
D14*
%TO.P,D3,2,A_2*%
%TO.N,/COL0*%
X111540000Y-103500000D03*
%TD*%
D13*
%TO.P,D6,1,K_1*%
%TO.N,Net-(D6-K)*%
X166850000Y-122500000D03*
D14*
%TO.P,D6,2,A_2*%
%TO.N,/COL3*%
X169390000Y-122500000D03*
%TD*%
D15*
%TO.P,SW11,1,1_1*%
%TO.N,Net-(D11-K)*%
X130810000Y-90170000D03*
%TO.P,SW11,2,2_2*%
%TO.N,/ROW1*%
X124460000Y-92710000D03*
%TD*%
D13*
%TO.P,D5,1,K_1*%
%TO.N,Net-(D5-K)*%
X166500000Y-103500000D03*
D14*
%TO.P,D5,2,A_2*%
%TO.N,/COL3*%
X169040000Y-103500000D03*
%TD*%
D13*
%TO.P,D9,1,K_1*%
%TO.N,Net-(D9-K)*%
X147150000Y-122500000D03*
D14*
%TO.P,D9,2,A_2*%
%TO.N,/COL2*%
X149690000Y-122500000D03*
%TD*%
D15*
%TO.P,SW5,1,1_1*%
%TO.N,Net-(D5-K)*%
X168910000Y-90170000D03*
%TO.P,SW5,2,2_2*%
%TO.N,/ROW1*%
X162560000Y-92710000D03*
%TD*%
D13*
%TO.P,D1,1,K_1*%
%TO.N,Net-(D1-K)*%
X109500000Y-84500000D03*
D14*
%TO.P,D1,2,A_2*%
%TO.N,/COL0*%
X112040000Y-84500000D03*
%TD*%
D15*
%TO.P,SW9,1,1_1*%
%TO.N,Net-(D9-K)*%
X149860000Y-109220000D03*
%TO.P,SW9,2,2_2*%
%TO.N,/ROW2*%
X143510000Y-111760000D03*
%TD*%
%TO.P,SW12,1,1_1*%
%TO.N,Net-(D12-K)*%
X130810000Y-109220000D03*
%TO.P,SW12,2,2_2*%
%TO.N,/ROW2*%
X124460000Y-111760000D03*
%TD*%
D13*
%TO.P,D11,1,K_1*%
%TO.N,Net-(D11-K)*%
X128350000Y-103500000D03*
D14*
%TO.P,D11,2,A_2*%
%TO.N,/COL1*%
X130890000Y-103500000D03*
%TD*%
D15*
%TO.P,SW3,1,1_1*%
%TO.N,Net-(D3-K)*%
X111760000Y-90170000D03*
%TO.P,SW3,2,2_2*%
%TO.N,/ROW1*%
X105410000Y-92710000D03*
%TD*%
%TO.N,Net-(D7-K)*%
D19*
X153856800Y-75116800D02*
X153856800Y-82316000D01*
X153856800Y-82316000D02*
X150519800Y-85653000D01*
X150519800Y-85653000D02*
X148653000Y-85653000D01*
X148653000Y-85653000D02*
X147500000Y-84500000D01*
X149860000Y-71120000D02*
X153856800Y-75116800D01*
%TO.N,/COL2*%
X151339100Y-113307900D02*
X150948300Y-113698700D01*
X150948300Y-121241700D02*
X149690000Y-122500000D01*
X150040000Y-84500000D02*
X148838200Y-83298200D01*
X150948300Y-113698700D02*
X150948300Y-121241700D01*
X150199300Y-88377300D02*
X151339100Y-89517100D01*
X151339100Y-89517100D02*
X151339100Y-94257900D01*
X146315500Y-83672200D02*
X146315500Y-85292900D01*
X126598300Y-63207000D02*
X126598300Y-53460000D01*
X148838200Y-83298200D02*
X146689500Y-83298200D01*
X149399900Y-88377300D02*
X150199300Y-88377300D01*
X150948300Y-94648700D02*
X150948300Y-102441700D01*
X129750000Y-53460000D02*
X126598300Y-53460000D01*
X146689500Y-83298200D02*
X146315500Y-83672200D01*
X150948300Y-102441700D02*
X149890000Y-103500000D01*
X151339100Y-94257900D02*
X150948300Y-94648700D01*
X146689500Y-83298200D02*
X126598300Y-63207000D01*
X149890000Y-103500000D02*
X151339100Y-104949100D01*
X146315500Y-85292900D02*
X149399900Y-88377300D01*
X151339100Y-104949100D02*
X151339100Y-113307900D01*
%TO.N,Net-(D8-K)*%
X149860000Y-90170000D02*
X149954000Y-90264000D01*
X149954000Y-90264000D02*
X149954000Y-100896000D01*
X149954000Y-100896000D02*
X147350000Y-103500000D01*
%TO.N,/ROW1*%
X105410000Y-92710000D02*
X110830200Y-87289800D01*
X110830200Y-83908800D02*
X119228000Y-75511000D01*
X129750000Y-43300000D02*
X126598300Y-43300000D01*
X119228000Y-75511000D02*
X119228000Y-50670300D01*
X119228000Y-50670300D02*
X126598300Y-43300000D01*
X110830200Y-87289800D02*
X110830200Y-83908800D01*
%TO.N,Net-(D6-K)*%
X169011600Y-120336400D02*
X168888300Y-120459700D01*
X168888300Y-120461700D02*
X166850000Y-122500000D01*
X168910000Y-109220000D02*
X169011600Y-109321600D01*
X169011600Y-109321600D02*
X169011600Y-120336400D01*
X168888300Y-120459700D02*
X168888300Y-120461700D01*
%TO.N,/ROW2*%
X130206700Y-49650000D02*
X127158800Y-49650000D01*
X130901700Y-48955000D02*
X130206700Y-49650000D01*
X125920700Y-70467800D02*
X125920700Y-74673900D01*
X125631300Y-89228400D02*
X125972000Y-89569100D01*
X125972000Y-93672600D02*
X124916900Y-94727700D01*
X125972000Y-89569100D02*
X125972000Y-93672600D01*
X127158800Y-49650000D02*
X125549500Y-51259300D01*
X130901700Y-45840000D02*
X130901700Y-48955000D01*
X125549500Y-51259300D02*
X125549500Y-70096600D01*
X125631300Y-74963300D02*
X125631300Y-89228400D01*
X124916900Y-111303100D02*
X124460000Y-111760000D01*
X125920700Y-74673900D02*
X125631300Y-74963300D01*
X124916900Y-94727700D02*
X124916900Y-111303100D01*
X129750000Y-45840000D02*
X130901700Y-45840000D01*
X125549500Y-70096600D02*
X125920700Y-70467800D01*
%TO.N,Net-(D2-K)*%
X168910000Y-71120000D02*
X169004000Y-71214000D01*
X169004000Y-71214000D02*
X169004000Y-81996000D01*
X169004000Y-81996000D02*
X166500000Y-84500000D01*
%TO.N,/ROW0*%
X118664300Y-60495700D02*
X105500000Y-73660000D01*
X126648300Y-40760000D02*
X118664300Y-48744000D01*
X129750000Y-40760000D02*
X126648300Y-40760000D01*
X118664300Y-48744000D02*
X118664300Y-60495700D01*
%TO.N,Net-(D10-K)*%
X130890900Y-82109100D02*
X130890900Y-71200900D01*
X130890900Y-71200900D02*
X130810000Y-71120000D01*
X128500000Y-84500000D02*
X130890900Y-82109100D01*
%TO.N,/COL1*%
X131898300Y-121641700D02*
X131040000Y-122500000D01*
X126051200Y-51467100D02*
X126598300Y-50920000D01*
X131898300Y-113698700D02*
X131898300Y-121641700D01*
X132289100Y-113307900D02*
X131898300Y-113698700D01*
X131040000Y-84500000D02*
X131398600Y-84141400D01*
X131398600Y-84141400D02*
X131398600Y-72584500D01*
X129750000Y-50920000D02*
X126598300Y-50920000D01*
X132261700Y-70492500D02*
X126051200Y-64282000D01*
X131398600Y-72584500D02*
X132261700Y-71721400D01*
X132289100Y-94257900D02*
X131898300Y-94648700D01*
X131898300Y-102491700D02*
X130890000Y-103500000D01*
X132289100Y-85749100D02*
X132289100Y-94257900D01*
X131040000Y-84500000D02*
X132289100Y-85749100D01*
X126051200Y-64282000D02*
X126051200Y-51467100D01*
X130890000Y-103500000D02*
X132289100Y-104899100D01*
X132289100Y-104899100D02*
X132289100Y-113307900D01*
X131898300Y-94648700D02*
X131898300Y-102491700D01*
X132261700Y-71721400D02*
X132261700Y-70492500D01*
%TO.N,/COL3*%
X169998300Y-113698700D02*
X169998300Y-121891700D01*
X169040000Y-103500000D02*
X170389100Y-104849100D01*
X170380200Y-91942700D02*
X170380200Y-85840200D01*
X167859600Y-85680400D02*
X165725400Y-85680400D01*
X169998300Y-121891700D02*
X169390000Y-122500000D01*
X170389100Y-104849100D02*
X170389100Y-113307900D01*
X169575100Y-92747800D02*
X170380200Y-91942700D01*
X152801700Y-71962900D02*
X136838800Y-56000000D01*
X170389100Y-113307900D02*
X169998300Y-113698700D01*
X169575100Y-102964900D02*
X169575100Y-92747800D01*
X136838800Y-56000000D02*
X129750000Y-56000000D01*
X169040000Y-103500000D02*
X169575100Y-102964900D01*
X165725400Y-85680400D02*
X152801700Y-72756700D01*
X169040000Y-84500000D02*
X167859600Y-85680400D01*
X152801700Y-72756700D02*
X152801700Y-71962900D01*
X170380200Y-85840200D02*
X169040000Y-84500000D01*
%TO.N,/COL0*%
X112425100Y-121964900D02*
X112425100Y-110608000D01*
X113211700Y-109821400D02*
X113211700Y-105171700D01*
X113226100Y-94270900D02*
X112735000Y-94762000D01*
X112735000Y-94762000D02*
X112735000Y-102305000D01*
X112425100Y-110608000D02*
X113211700Y-109821400D01*
X113226100Y-84500000D02*
X113226100Y-94270900D01*
X112040000Y-84500000D02*
X113226100Y-84500000D01*
X129750000Y-48380000D02*
X126598300Y-48380000D01*
X111890000Y-122500000D02*
X112425100Y-121964900D01*
X113211700Y-105171700D02*
X111540000Y-103500000D01*
X112735000Y-102305000D02*
X111540000Y-103500000D01*
X119729700Y-77996400D02*
X119729700Y-55248600D01*
X119729700Y-55248600D02*
X126598300Y-48380000D01*
X113226100Y-84500000D02*
X119729700Y-77996400D01*
%TO.N,/ENC1A*%
X154722800Y-56000000D02*
X145000000Y-56000000D01*
X158628900Y-53445600D02*
X157277200Y-53445600D01*
X157277200Y-53445600D02*
X154722800Y-56000000D01*
%TO.N,Net-(D1-K)*%
X111850000Y-71120000D02*
X111951600Y-71221600D01*
X111951600Y-82048400D02*
X109500000Y-84500000D01*
X111951600Y-71221600D02*
X111951600Y-82048400D01*
%TO.N,Net-(D4-K)*%
X111854000Y-109314000D02*
X111854000Y-119996000D01*
X111760000Y-109220000D02*
X111854000Y-109314000D01*
X111854000Y-119996000D02*
X109350000Y-122500000D01*
%TO.N,Net-(D12-K)*%
X130810000Y-109220000D02*
X130904000Y-109314000D01*
X130904000Y-109314000D02*
X130904000Y-120096000D01*
X130904000Y-120096000D02*
X128500000Y-122500000D01*
%TO.N,Net-(D3-K)*%
X111760000Y-90170000D02*
X111854000Y-90264000D01*
X111854000Y-100646000D02*
X109000000Y-103500000D01*
X111854000Y-90264000D02*
X111854000Y-100646000D01*
%TO.N,Net-(D11-K)*%
X130904000Y-90264000D02*
X130904000Y-100946000D01*
X130810000Y-90170000D02*
X130904000Y-90264000D01*
X130904000Y-100946000D02*
X128350000Y-103500000D01*
%TO.N,Net-(D5-K)*%
X169004000Y-90264000D02*
X169004000Y-100996000D01*
X168910000Y-90170000D02*
X169004000Y-90264000D01*
X169004000Y-100996000D02*
X166500000Y-103500000D01*
%TO.N,Net-(D9-K)*%
X149188300Y-120459700D02*
X149188300Y-120461700D01*
X149860000Y-109220000D02*
X149954000Y-109314000D01*
X149954000Y-109314000D02*
X149954000Y-119694000D01*
X149954000Y-119694000D02*
X149188300Y-120459700D01*
X149188300Y-120461700D02*
X147150000Y-122500000D01*
%TD*%
M02*
