%TF.GenerationSoftware,KiCad,Pcbnew,10.0.5*%
%TF.CreationDate,2026-09-12T22:57:18-04:00*%
%TF.ProjectId,mk1,6d6b312e-6b69-4636-9164-5f7063625858,rev?*%
%TF.SameCoordinates,Original*%
%TF.FileFunction,Legend,Top*%
%TF.FilePolarity,Positive*%
%FSLAX46Y46*%
G04 Gerber Fmt 4.6, Leading zero omitted, Abs format (unit mm)*
G04 Created by KiCad (PCBNEW 10.0.5) date 2026-09-12 22:57:18*
%MOMM*%
%LPD*%
G01*
G04 APERTURE LIST*
%ADD10C,0.150000*%
%ADD11C,0.101600*%
%ADD12C,0.120000*%
%ADD13C,0.127000*%
%ADD14C,0.254000*%
%ADD15C,0.025400*%
G04 APERTURE END LIST*
D10*
X102280576Y-48678400D02*
X102423433Y-48726019D01*
X102423433Y-48726019D02*
X102661528Y-48726019D01*
X102661528Y-48726019D02*
X102756766Y-48678400D01*
X102756766Y-48678400D02*
X102804385Y-48630780D01*
X102804385Y-48630780D02*
X102852004Y-48535542D01*
X102852004Y-48535542D02*
X102852004Y-48440304D01*
X102852004Y-48440304D02*
X102804385Y-48345066D01*
X102804385Y-48345066D02*
X102756766Y-48297447D01*
X102756766Y-48297447D02*
X102661528Y-48249828D01*
X102661528Y-48249828D02*
X102471052Y-48202209D01*
X102471052Y-48202209D02*
X102375814Y-48154590D01*
X102375814Y-48154590D02*
X102328195Y-48106971D01*
X102328195Y-48106971D02*
X102280576Y-48011733D01*
X102280576Y-48011733D02*
X102280576Y-47916495D01*
X102280576Y-47916495D02*
X102328195Y-47821257D01*
X102328195Y-47821257D02*
X102375814Y-47773638D01*
X102375814Y-47773638D02*
X102471052Y-47726019D01*
X102471052Y-47726019D02*
X102709147Y-47726019D01*
X102709147Y-47726019D02*
X102852004Y-47773638D01*
X103185338Y-47726019D02*
X103423433Y-48726019D01*
X103423433Y-48726019D02*
X103613909Y-48011733D01*
X103613909Y-48011733D02*
X103804385Y-48726019D01*
X103804385Y-48726019D02*
X104042481Y-47726019D01*
X104947242Y-48726019D02*
X104375814Y-48726019D01*
X104661528Y-48726019D02*
X104661528Y-47726019D01*
X104661528Y-47726019D02*
X104566290Y-47868876D01*
X104566290Y-47868876D02*
X104471052Y-47964114D01*
X104471052Y-47964114D02*
X104375814Y-48011733D01*
X105804385Y-48059352D02*
X105804385Y-48726019D01*
X105566290Y-47678400D02*
X105328195Y-48392685D01*
X105328195Y-48392685D02*
X105947242Y-48392685D01*
X148031905Y-82628448D02*
X148031905Y-81628448D01*
X148031905Y-81628448D02*
X148270000Y-81628448D01*
X148270000Y-81628448D02*
X148412857Y-81676067D01*
X148412857Y-81676067D02*
X148508095Y-81771305D01*
X148508095Y-81771305D02*
X148555714Y-81866543D01*
X148555714Y-81866543D02*
X148603333Y-82057019D01*
X148603333Y-82057019D02*
X148603333Y-82199876D01*
X148603333Y-82199876D02*
X148555714Y-82390352D01*
X148555714Y-82390352D02*
X148508095Y-82485590D01*
X148508095Y-82485590D02*
X148412857Y-82580829D01*
X148412857Y-82580829D02*
X148270000Y-82628448D01*
X148270000Y-82628448D02*
X148031905Y-82628448D01*
X148936667Y-81628448D02*
X149603333Y-81628448D01*
X149603333Y-81628448D02*
X149174762Y-82628448D01*
X145438095Y-84954819D02*
X145438095Y-83954819D01*
X146009523Y-84954819D02*
X145580952Y-84383390D01*
X146009523Y-83954819D02*
X145438095Y-84526247D01*
X145986667Y-87783200D02*
X146129524Y-87830819D01*
X146129524Y-87830819D02*
X146367619Y-87830819D01*
X146367619Y-87830819D02*
X146462857Y-87783200D01*
X146462857Y-87783200D02*
X146510476Y-87735580D01*
X146510476Y-87735580D02*
X146558095Y-87640342D01*
X146558095Y-87640342D02*
X146558095Y-87545104D01*
X146558095Y-87545104D02*
X146510476Y-87449866D01*
X146510476Y-87449866D02*
X146462857Y-87402247D01*
X146462857Y-87402247D02*
X146367619Y-87354628D01*
X146367619Y-87354628D02*
X146177143Y-87307009D01*
X146177143Y-87307009D02*
X146081905Y-87259390D01*
X146081905Y-87259390D02*
X146034286Y-87211771D01*
X146034286Y-87211771D02*
X145986667Y-87116533D01*
X145986667Y-87116533D02*
X145986667Y-87021295D01*
X145986667Y-87021295D02*
X146034286Y-86926057D01*
X146034286Y-86926057D02*
X146081905Y-86878438D01*
X146081905Y-86878438D02*
X146177143Y-86830819D01*
X146177143Y-86830819D02*
X146415238Y-86830819D01*
X146415238Y-86830819D02*
X146558095Y-86878438D01*
X146891429Y-86830819D02*
X147129524Y-87830819D01*
X147129524Y-87830819D02*
X147320000Y-87116533D01*
X147320000Y-87116533D02*
X147510476Y-87830819D01*
X147510476Y-87830819D02*
X147748572Y-86830819D01*
X148272381Y-87259390D02*
X148177143Y-87211771D01*
X148177143Y-87211771D02*
X148129524Y-87164152D01*
X148129524Y-87164152D02*
X148081905Y-87068914D01*
X148081905Y-87068914D02*
X148081905Y-87021295D01*
X148081905Y-87021295D02*
X148129524Y-86926057D01*
X148129524Y-86926057D02*
X148177143Y-86878438D01*
X148177143Y-86878438D02*
X148272381Y-86830819D01*
X148272381Y-86830819D02*
X148462857Y-86830819D01*
X148462857Y-86830819D02*
X148558095Y-86878438D01*
X148558095Y-86878438D02*
X148605714Y-86926057D01*
X148605714Y-86926057D02*
X148653333Y-87021295D01*
X148653333Y-87021295D02*
X148653333Y-87068914D01*
X148653333Y-87068914D02*
X148605714Y-87164152D01*
X148605714Y-87164152D02*
X148558095Y-87211771D01*
X148558095Y-87211771D02*
X148462857Y-87259390D01*
X148462857Y-87259390D02*
X148272381Y-87259390D01*
X148272381Y-87259390D02*
X148177143Y-87307009D01*
X148177143Y-87307009D02*
X148129524Y-87354628D01*
X148129524Y-87354628D02*
X148081905Y-87449866D01*
X148081905Y-87449866D02*
X148081905Y-87640342D01*
X148081905Y-87640342D02*
X148129524Y-87735580D01*
X148129524Y-87735580D02*
X148177143Y-87783200D01*
X148177143Y-87783200D02*
X148272381Y-87830819D01*
X148272381Y-87830819D02*
X148462857Y-87830819D01*
X148462857Y-87830819D02*
X148558095Y-87783200D01*
X148558095Y-87783200D02*
X148605714Y-87735580D01*
X148605714Y-87735580D02*
X148653333Y-87640342D01*
X148653333Y-87640342D02*
X148653333Y-87449866D01*
X148653333Y-87449866D02*
X148605714Y-87354628D01*
X148605714Y-87354628D02*
X148558095Y-87307009D01*
X148558095Y-87307009D02*
X148462857Y-87259390D01*
X165166667Y-106407200D02*
X165309524Y-106454819D01*
X165309524Y-106454819D02*
X165547619Y-106454819D01*
X165547619Y-106454819D02*
X165642857Y-106407200D01*
X165642857Y-106407200D02*
X165690476Y-106359580D01*
X165690476Y-106359580D02*
X165738095Y-106264342D01*
X165738095Y-106264342D02*
X165738095Y-106169104D01*
X165738095Y-106169104D02*
X165690476Y-106073866D01*
X165690476Y-106073866D02*
X165642857Y-106026247D01*
X165642857Y-106026247D02*
X165547619Y-105978628D01*
X165547619Y-105978628D02*
X165357143Y-105931009D01*
X165357143Y-105931009D02*
X165261905Y-105883390D01*
X165261905Y-105883390D02*
X165214286Y-105835771D01*
X165214286Y-105835771D02*
X165166667Y-105740533D01*
X165166667Y-105740533D02*
X165166667Y-105645295D01*
X165166667Y-105645295D02*
X165214286Y-105550057D01*
X165214286Y-105550057D02*
X165261905Y-105502438D01*
X165261905Y-105502438D02*
X165357143Y-105454819D01*
X165357143Y-105454819D02*
X165595238Y-105454819D01*
X165595238Y-105454819D02*
X165738095Y-105502438D01*
X166071429Y-105454819D02*
X166309524Y-106454819D01*
X166309524Y-106454819D02*
X166500000Y-105740533D01*
X166500000Y-105740533D02*
X166690476Y-106454819D01*
X166690476Y-106454819D02*
X166928572Y-105454819D01*
X167738095Y-105454819D02*
X167547619Y-105454819D01*
X167547619Y-105454819D02*
X167452381Y-105502438D01*
X167452381Y-105502438D02*
X167404762Y-105550057D01*
X167404762Y-105550057D02*
X167309524Y-105692914D01*
X167309524Y-105692914D02*
X167261905Y-105883390D01*
X167261905Y-105883390D02*
X167261905Y-106264342D01*
X167261905Y-106264342D02*
X167309524Y-106359580D01*
X167309524Y-106359580D02*
X167357143Y-106407200D01*
X167357143Y-106407200D02*
X167452381Y-106454819D01*
X167452381Y-106454819D02*
X167642857Y-106454819D01*
X167642857Y-106454819D02*
X167738095Y-106407200D01*
X167738095Y-106407200D02*
X167785714Y-106359580D01*
X167785714Y-106359580D02*
X167833333Y-106264342D01*
X167833333Y-106264342D02*
X167833333Y-106026247D01*
X167833333Y-106026247D02*
X167785714Y-105931009D01*
X167785714Y-105931009D02*
X167738095Y-105883390D01*
X167738095Y-105883390D02*
X167642857Y-105835771D01*
X167642857Y-105835771D02*
X167452381Y-105835771D01*
X167452381Y-105835771D02*
X167357143Y-105883390D01*
X167357143Y-105883390D02*
X167309524Y-105931009D01*
X167309524Y-105931009D02*
X167261905Y-106026247D01*
X165036667Y-68733200D02*
X165179524Y-68780819D01*
X165179524Y-68780819D02*
X165417619Y-68780819D01*
X165417619Y-68780819D02*
X165512857Y-68733200D01*
X165512857Y-68733200D02*
X165560476Y-68685580D01*
X165560476Y-68685580D02*
X165608095Y-68590342D01*
X165608095Y-68590342D02*
X165608095Y-68495104D01*
X165608095Y-68495104D02*
X165560476Y-68399866D01*
X165560476Y-68399866D02*
X165512857Y-68352247D01*
X165512857Y-68352247D02*
X165417619Y-68304628D01*
X165417619Y-68304628D02*
X165227143Y-68257009D01*
X165227143Y-68257009D02*
X165131905Y-68209390D01*
X165131905Y-68209390D02*
X165084286Y-68161771D01*
X165084286Y-68161771D02*
X165036667Y-68066533D01*
X165036667Y-68066533D02*
X165036667Y-67971295D01*
X165036667Y-67971295D02*
X165084286Y-67876057D01*
X165084286Y-67876057D02*
X165131905Y-67828438D01*
X165131905Y-67828438D02*
X165227143Y-67780819D01*
X165227143Y-67780819D02*
X165465238Y-67780819D01*
X165465238Y-67780819D02*
X165608095Y-67828438D01*
X165941429Y-67780819D02*
X166179524Y-68780819D01*
X166179524Y-68780819D02*
X166370000Y-68066533D01*
X166370000Y-68066533D02*
X166560476Y-68780819D01*
X166560476Y-68780819D02*
X166798572Y-67780819D01*
X167131905Y-67876057D02*
X167179524Y-67828438D01*
X167179524Y-67828438D02*
X167274762Y-67780819D01*
X167274762Y-67780819D02*
X167512857Y-67780819D01*
X167512857Y-67780819D02*
X167608095Y-67828438D01*
X167608095Y-67828438D02*
X167655714Y-67876057D01*
X167655714Y-67876057D02*
X167703333Y-67971295D01*
X167703333Y-67971295D02*
X167703333Y-68066533D01*
X167703333Y-68066533D02*
X167655714Y-68209390D01*
X167655714Y-68209390D02*
X167084286Y-68780819D01*
X167084286Y-68780819D02*
X167703333Y-68780819D01*
X128555714Y-82628448D02*
X128555714Y-81628448D01*
X128555714Y-81628448D02*
X128793809Y-81628448D01*
X128793809Y-81628448D02*
X128936666Y-81676067D01*
X128936666Y-81676067D02*
X129031904Y-81771305D01*
X129031904Y-81771305D02*
X129079523Y-81866543D01*
X129079523Y-81866543D02*
X129127142Y-82057019D01*
X129127142Y-82057019D02*
X129127142Y-82199876D01*
X129127142Y-82199876D02*
X129079523Y-82390352D01*
X129079523Y-82390352D02*
X129031904Y-82485590D01*
X129031904Y-82485590D02*
X128936666Y-82580829D01*
X128936666Y-82580829D02*
X128793809Y-82628448D01*
X128793809Y-82628448D02*
X128555714Y-82628448D01*
X130079523Y-82628448D02*
X129508095Y-82628448D01*
X129793809Y-82628448D02*
X129793809Y-81628448D01*
X129793809Y-81628448D02*
X129698571Y-81771305D01*
X129698571Y-81771305D02*
X129603333Y-81866543D01*
X129603333Y-81866543D02*
X129508095Y-81914162D01*
X130698571Y-81628448D02*
X130793809Y-81628448D01*
X130793809Y-81628448D02*
X130889047Y-81676067D01*
X130889047Y-81676067D02*
X130936666Y-81723686D01*
X130936666Y-81723686D02*
X130984285Y-81818924D01*
X130984285Y-81818924D02*
X131031904Y-82009400D01*
X131031904Y-82009400D02*
X131031904Y-82247495D01*
X131031904Y-82247495D02*
X130984285Y-82437971D01*
X130984285Y-82437971D02*
X130936666Y-82533209D01*
X130936666Y-82533209D02*
X130889047Y-82580829D01*
X130889047Y-82580829D02*
X130793809Y-82628448D01*
X130793809Y-82628448D02*
X130698571Y-82628448D01*
X130698571Y-82628448D02*
X130603333Y-82580829D01*
X130603333Y-82580829D02*
X130555714Y-82533209D01*
X130555714Y-82533209D02*
X130508095Y-82437971D01*
X130508095Y-82437971D02*
X130460476Y-82247495D01*
X130460476Y-82247495D02*
X130460476Y-82009400D01*
X130460476Y-82009400D02*
X130508095Y-81818924D01*
X130508095Y-81818924D02*
X130555714Y-81723686D01*
X130555714Y-81723686D02*
X130603333Y-81676067D01*
X130603333Y-81676067D02*
X130698571Y-81628448D01*
X126438095Y-84954819D02*
X126438095Y-83954819D01*
X127009523Y-84954819D02*
X126580952Y-84383390D01*
X127009523Y-83954819D02*
X126438095Y-84526247D01*
X167031905Y-82628448D02*
X167031905Y-81628448D01*
X167031905Y-81628448D02*
X167270000Y-81628448D01*
X167270000Y-81628448D02*
X167412857Y-81676067D01*
X167412857Y-81676067D02*
X167508095Y-81771305D01*
X167508095Y-81771305D02*
X167555714Y-81866543D01*
X167555714Y-81866543D02*
X167603333Y-82057019D01*
X167603333Y-82057019D02*
X167603333Y-82199876D01*
X167603333Y-82199876D02*
X167555714Y-82390352D01*
X167555714Y-82390352D02*
X167508095Y-82485590D01*
X167508095Y-82485590D02*
X167412857Y-82580829D01*
X167412857Y-82580829D02*
X167270000Y-82628448D01*
X167270000Y-82628448D02*
X167031905Y-82628448D01*
X167984286Y-81723686D02*
X168031905Y-81676067D01*
X168031905Y-81676067D02*
X168127143Y-81628448D01*
X168127143Y-81628448D02*
X168365238Y-81628448D01*
X168365238Y-81628448D02*
X168460476Y-81676067D01*
X168460476Y-81676067D02*
X168508095Y-81723686D01*
X168508095Y-81723686D02*
X168555714Y-81818924D01*
X168555714Y-81818924D02*
X168555714Y-81914162D01*
X168555714Y-81914162D02*
X168508095Y-82057019D01*
X168508095Y-82057019D02*
X167936667Y-82628448D01*
X167936667Y-82628448D02*
X168555714Y-82628448D01*
X164438095Y-84954819D02*
X164438095Y-83954819D01*
X165009523Y-84954819D02*
X164580952Y-84383390D01*
X165009523Y-83954819D02*
X164438095Y-84526247D01*
D11*
X136697666Y-50436985D02*
X136697666Y-51156652D01*
X136697666Y-51156652D02*
X136740000Y-51241318D01*
X136740000Y-51241318D02*
X136782333Y-51283652D01*
X136782333Y-51283652D02*
X136867000Y-51325985D01*
X136867000Y-51325985D02*
X137036333Y-51325985D01*
X137036333Y-51325985D02*
X137121000Y-51283652D01*
X137121000Y-51283652D02*
X137163333Y-51241318D01*
X137163333Y-51241318D02*
X137205666Y-51156652D01*
X137205666Y-51156652D02*
X137205666Y-50436985D01*
X138094666Y-51325985D02*
X137586666Y-51325985D01*
X137840666Y-51325985D02*
X137840666Y-50436985D01*
X137840666Y-50436985D02*
X137755999Y-50563985D01*
X137755999Y-50563985D02*
X137671333Y-50648652D01*
X137671333Y-50648652D02*
X137586666Y-50690985D01*
D10*
X132613095Y-47287200D02*
X132755952Y-47334819D01*
X132755952Y-47334819D02*
X132994047Y-47334819D01*
X132994047Y-47334819D02*
X133089285Y-47287200D01*
X133089285Y-47287200D02*
X133136904Y-47239580D01*
X133136904Y-47239580D02*
X133184523Y-47144342D01*
X133184523Y-47144342D02*
X133184523Y-47049104D01*
X133184523Y-47049104D02*
X133136904Y-46953866D01*
X133136904Y-46953866D02*
X133089285Y-46906247D01*
X133089285Y-46906247D02*
X132994047Y-46858628D01*
X132994047Y-46858628D02*
X132803571Y-46811009D01*
X132803571Y-46811009D02*
X132708333Y-46763390D01*
X132708333Y-46763390D02*
X132660714Y-46715771D01*
X132660714Y-46715771D02*
X132613095Y-46620533D01*
X132613095Y-46620533D02*
X132613095Y-46525295D01*
X132613095Y-46525295D02*
X132660714Y-46430057D01*
X132660714Y-46430057D02*
X132708333Y-46382438D01*
X132708333Y-46382438D02*
X132803571Y-46334819D01*
X132803571Y-46334819D02*
X133041666Y-46334819D01*
X133041666Y-46334819D02*
X133184523Y-46382438D01*
X133994047Y-47287200D02*
X133898809Y-47334819D01*
X133898809Y-47334819D02*
X133708333Y-47334819D01*
X133708333Y-47334819D02*
X133613095Y-47287200D01*
X133613095Y-47287200D02*
X133565476Y-47191961D01*
X133565476Y-47191961D02*
X133565476Y-46811009D01*
X133565476Y-46811009D02*
X133613095Y-46715771D01*
X133613095Y-46715771D02*
X133708333Y-46668152D01*
X133708333Y-46668152D02*
X133898809Y-46668152D01*
X133898809Y-46668152D02*
X133994047Y-46715771D01*
X133994047Y-46715771D02*
X134041666Y-46811009D01*
X134041666Y-46811009D02*
X134041666Y-46906247D01*
X134041666Y-46906247D02*
X133565476Y-47001485D01*
X134851190Y-47287200D02*
X134755952Y-47334819D01*
X134755952Y-47334819D02*
X134565476Y-47334819D01*
X134565476Y-47334819D02*
X134470238Y-47287200D01*
X134470238Y-47287200D02*
X134422619Y-47191961D01*
X134422619Y-47191961D02*
X134422619Y-46811009D01*
X134422619Y-46811009D02*
X134470238Y-46715771D01*
X134470238Y-46715771D02*
X134565476Y-46668152D01*
X134565476Y-46668152D02*
X134755952Y-46668152D01*
X134755952Y-46668152D02*
X134851190Y-46715771D01*
X134851190Y-46715771D02*
X134898809Y-46811009D01*
X134898809Y-46811009D02*
X134898809Y-46906247D01*
X134898809Y-46906247D02*
X134422619Y-47001485D01*
X135708333Y-47287200D02*
X135613095Y-47334819D01*
X135613095Y-47334819D02*
X135422619Y-47334819D01*
X135422619Y-47334819D02*
X135327381Y-47287200D01*
X135327381Y-47287200D02*
X135279762Y-47191961D01*
X135279762Y-47191961D02*
X135279762Y-46811009D01*
X135279762Y-46811009D02*
X135327381Y-46715771D01*
X135327381Y-46715771D02*
X135422619Y-46668152D01*
X135422619Y-46668152D02*
X135613095Y-46668152D01*
X135613095Y-46668152D02*
X135708333Y-46715771D01*
X135708333Y-46715771D02*
X135755952Y-46811009D01*
X135755952Y-46811009D02*
X135755952Y-46906247D01*
X135755952Y-46906247D02*
X135279762Y-47001485D01*
X136613095Y-47334819D02*
X136613095Y-46334819D01*
X136613095Y-47287200D02*
X136517857Y-47334819D01*
X136517857Y-47334819D02*
X136327381Y-47334819D01*
X136327381Y-47334819D02*
X136232143Y-47287200D01*
X136232143Y-47287200D02*
X136184524Y-47239580D01*
X136184524Y-47239580D02*
X136136905Y-47144342D01*
X136136905Y-47144342D02*
X136136905Y-46858628D01*
X136136905Y-46858628D02*
X136184524Y-46763390D01*
X136184524Y-46763390D02*
X136232143Y-46715771D01*
X136232143Y-46715771D02*
X136327381Y-46668152D01*
X136327381Y-46668152D02*
X136517857Y-46668152D01*
X136517857Y-46668152D02*
X136613095Y-46715771D01*
X137803572Y-47287200D02*
X137946429Y-47334819D01*
X137946429Y-47334819D02*
X138184524Y-47334819D01*
X138184524Y-47334819D02*
X138279762Y-47287200D01*
X138279762Y-47287200D02*
X138327381Y-47239580D01*
X138327381Y-47239580D02*
X138375000Y-47144342D01*
X138375000Y-47144342D02*
X138375000Y-47049104D01*
X138375000Y-47049104D02*
X138327381Y-46953866D01*
X138327381Y-46953866D02*
X138279762Y-46906247D01*
X138279762Y-46906247D02*
X138184524Y-46858628D01*
X138184524Y-46858628D02*
X137994048Y-46811009D01*
X137994048Y-46811009D02*
X137898810Y-46763390D01*
X137898810Y-46763390D02*
X137851191Y-46715771D01*
X137851191Y-46715771D02*
X137803572Y-46620533D01*
X137803572Y-46620533D02*
X137803572Y-46525295D01*
X137803572Y-46525295D02*
X137851191Y-46430057D01*
X137851191Y-46430057D02*
X137898810Y-46382438D01*
X137898810Y-46382438D02*
X137994048Y-46334819D01*
X137994048Y-46334819D02*
X138232143Y-46334819D01*
X138232143Y-46334819D02*
X138375000Y-46382438D01*
X138660715Y-46668152D02*
X139041667Y-46668152D01*
X138803572Y-46334819D02*
X138803572Y-47191961D01*
X138803572Y-47191961D02*
X138851191Y-47287200D01*
X138851191Y-47287200D02*
X138946429Y-47334819D01*
X138946429Y-47334819D02*
X139041667Y-47334819D01*
X139803572Y-46668152D02*
X139803572Y-47334819D01*
X139375001Y-46668152D02*
X139375001Y-47191961D01*
X139375001Y-47191961D02*
X139422620Y-47287200D01*
X139422620Y-47287200D02*
X139517858Y-47334819D01*
X139517858Y-47334819D02*
X139660715Y-47334819D01*
X139660715Y-47334819D02*
X139755953Y-47287200D01*
X139755953Y-47287200D02*
X139803572Y-47239580D01*
X140708334Y-47334819D02*
X140708334Y-46334819D01*
X140708334Y-47287200D02*
X140613096Y-47334819D01*
X140613096Y-47334819D02*
X140422620Y-47334819D01*
X140422620Y-47334819D02*
X140327382Y-47287200D01*
X140327382Y-47287200D02*
X140279763Y-47239580D01*
X140279763Y-47239580D02*
X140232144Y-47144342D01*
X140232144Y-47144342D02*
X140232144Y-46858628D01*
X140232144Y-46858628D02*
X140279763Y-46763390D01*
X140279763Y-46763390D02*
X140327382Y-46715771D01*
X140327382Y-46715771D02*
X140422620Y-46668152D01*
X140422620Y-46668152D02*
X140613096Y-46668152D01*
X140613096Y-46668152D02*
X140708334Y-46715771D01*
X141184525Y-47334819D02*
X141184525Y-46668152D01*
X141184525Y-46334819D02*
X141136906Y-46382438D01*
X141136906Y-46382438D02*
X141184525Y-46430057D01*
X141184525Y-46430057D02*
X141232144Y-46382438D01*
X141232144Y-46382438D02*
X141184525Y-46334819D01*
X141184525Y-46334819D02*
X141184525Y-46430057D01*
X141803572Y-47334819D02*
X141708334Y-47287200D01*
X141708334Y-47287200D02*
X141660715Y-47239580D01*
X141660715Y-47239580D02*
X141613096Y-47144342D01*
X141613096Y-47144342D02*
X141613096Y-46858628D01*
X141613096Y-46858628D02*
X141660715Y-46763390D01*
X141660715Y-46763390D02*
X141708334Y-46715771D01*
X141708334Y-46715771D02*
X141803572Y-46668152D01*
X141803572Y-46668152D02*
X141946429Y-46668152D01*
X141946429Y-46668152D02*
X142041667Y-46715771D01*
X142041667Y-46715771D02*
X142089286Y-46763390D01*
X142089286Y-46763390D02*
X142136905Y-46858628D01*
X142136905Y-46858628D02*
X142136905Y-47144342D01*
X142136905Y-47144342D02*
X142089286Y-47239580D01*
X142089286Y-47239580D02*
X142041667Y-47287200D01*
X142041667Y-47287200D02*
X141946429Y-47334819D01*
X141946429Y-47334819D02*
X141803572Y-47334819D01*
X135851191Y-48334819D02*
X136517857Y-49334819D01*
X136517857Y-48334819D02*
X135851191Y-49334819D01*
X136898810Y-49334819D02*
X136898810Y-48334819D01*
X137327381Y-49049104D02*
X137803571Y-49049104D01*
X137232143Y-49334819D02*
X137565476Y-48334819D01*
X137565476Y-48334819D02*
X137898809Y-49334819D01*
X138422619Y-48334819D02*
X138613095Y-48334819D01*
X138613095Y-48334819D02*
X138708333Y-48382438D01*
X138708333Y-48382438D02*
X138803571Y-48477676D01*
X138803571Y-48477676D02*
X138851190Y-48668152D01*
X138851190Y-48668152D02*
X138851190Y-49001485D01*
X138851190Y-49001485D02*
X138803571Y-49191961D01*
X138803571Y-49191961D02*
X138708333Y-49287200D01*
X138708333Y-49287200D02*
X138613095Y-49334819D01*
X138613095Y-49334819D02*
X138422619Y-49334819D01*
X138422619Y-49334819D02*
X138327381Y-49287200D01*
X138327381Y-49287200D02*
X138232143Y-49191961D01*
X138232143Y-49191961D02*
X138184524Y-49001485D01*
X138184524Y-49001485D02*
X138184524Y-48668152D01*
X138184524Y-48668152D02*
X138232143Y-48477676D01*
X138232143Y-48477676D02*
X138327381Y-48382438D01*
X138327381Y-48382438D02*
X138422619Y-48334819D01*
X147881905Y-101628448D02*
X147881905Y-100628448D01*
X147881905Y-100628448D02*
X148120000Y-100628448D01*
X148120000Y-100628448D02*
X148262857Y-100676067D01*
X148262857Y-100676067D02*
X148358095Y-100771305D01*
X148358095Y-100771305D02*
X148405714Y-100866543D01*
X148405714Y-100866543D02*
X148453333Y-101057019D01*
X148453333Y-101057019D02*
X148453333Y-101199876D01*
X148453333Y-101199876D02*
X148405714Y-101390352D01*
X148405714Y-101390352D02*
X148358095Y-101485590D01*
X148358095Y-101485590D02*
X148262857Y-101580829D01*
X148262857Y-101580829D02*
X148120000Y-101628448D01*
X148120000Y-101628448D02*
X147881905Y-101628448D01*
X149024762Y-101057019D02*
X148929524Y-101009400D01*
X148929524Y-101009400D02*
X148881905Y-100961781D01*
X148881905Y-100961781D02*
X148834286Y-100866543D01*
X148834286Y-100866543D02*
X148834286Y-100818924D01*
X148834286Y-100818924D02*
X148881905Y-100723686D01*
X148881905Y-100723686D02*
X148929524Y-100676067D01*
X148929524Y-100676067D02*
X149024762Y-100628448D01*
X149024762Y-100628448D02*
X149215238Y-100628448D01*
X149215238Y-100628448D02*
X149310476Y-100676067D01*
X149310476Y-100676067D02*
X149358095Y-100723686D01*
X149358095Y-100723686D02*
X149405714Y-100818924D01*
X149405714Y-100818924D02*
X149405714Y-100866543D01*
X149405714Y-100866543D02*
X149358095Y-100961781D01*
X149358095Y-100961781D02*
X149310476Y-101009400D01*
X149310476Y-101009400D02*
X149215238Y-101057019D01*
X149215238Y-101057019D02*
X149024762Y-101057019D01*
X149024762Y-101057019D02*
X148929524Y-101104638D01*
X148929524Y-101104638D02*
X148881905Y-101152257D01*
X148881905Y-101152257D02*
X148834286Y-101247495D01*
X148834286Y-101247495D02*
X148834286Y-101437971D01*
X148834286Y-101437971D02*
X148881905Y-101533209D01*
X148881905Y-101533209D02*
X148929524Y-101580829D01*
X148929524Y-101580829D02*
X149024762Y-101628448D01*
X149024762Y-101628448D02*
X149215238Y-101628448D01*
X149215238Y-101628448D02*
X149310476Y-101580829D01*
X149310476Y-101580829D02*
X149358095Y-101533209D01*
X149358095Y-101533209D02*
X149405714Y-101437971D01*
X149405714Y-101437971D02*
X149405714Y-101247495D01*
X149405714Y-101247495D02*
X149358095Y-101152257D01*
X149358095Y-101152257D02*
X149310476Y-101104638D01*
X149310476Y-101104638D02*
X149215238Y-101057019D01*
X145288095Y-103954819D02*
X145288095Y-102954819D01*
X145859523Y-103954819D02*
X145430952Y-103383390D01*
X145859523Y-102954819D02*
X145288095Y-103526247D01*
X145986667Y-68733200D02*
X146129524Y-68780819D01*
X146129524Y-68780819D02*
X146367619Y-68780819D01*
X146367619Y-68780819D02*
X146462857Y-68733200D01*
X146462857Y-68733200D02*
X146510476Y-68685580D01*
X146510476Y-68685580D02*
X146558095Y-68590342D01*
X146558095Y-68590342D02*
X146558095Y-68495104D01*
X146558095Y-68495104D02*
X146510476Y-68399866D01*
X146510476Y-68399866D02*
X146462857Y-68352247D01*
X146462857Y-68352247D02*
X146367619Y-68304628D01*
X146367619Y-68304628D02*
X146177143Y-68257009D01*
X146177143Y-68257009D02*
X146081905Y-68209390D01*
X146081905Y-68209390D02*
X146034286Y-68161771D01*
X146034286Y-68161771D02*
X145986667Y-68066533D01*
X145986667Y-68066533D02*
X145986667Y-67971295D01*
X145986667Y-67971295D02*
X146034286Y-67876057D01*
X146034286Y-67876057D02*
X146081905Y-67828438D01*
X146081905Y-67828438D02*
X146177143Y-67780819D01*
X146177143Y-67780819D02*
X146415238Y-67780819D01*
X146415238Y-67780819D02*
X146558095Y-67828438D01*
X146891429Y-67780819D02*
X147129524Y-68780819D01*
X147129524Y-68780819D02*
X147320000Y-68066533D01*
X147320000Y-68066533D02*
X147510476Y-68780819D01*
X147510476Y-68780819D02*
X147748572Y-67780819D01*
X148034286Y-67780819D02*
X148700952Y-67780819D01*
X148700952Y-67780819D02*
X148272381Y-68780819D01*
X107976667Y-68733200D02*
X108119524Y-68780819D01*
X108119524Y-68780819D02*
X108357619Y-68780819D01*
X108357619Y-68780819D02*
X108452857Y-68733200D01*
X108452857Y-68733200D02*
X108500476Y-68685580D01*
X108500476Y-68685580D02*
X108548095Y-68590342D01*
X108548095Y-68590342D02*
X108548095Y-68495104D01*
X108548095Y-68495104D02*
X108500476Y-68399866D01*
X108500476Y-68399866D02*
X108452857Y-68352247D01*
X108452857Y-68352247D02*
X108357619Y-68304628D01*
X108357619Y-68304628D02*
X108167143Y-68257009D01*
X108167143Y-68257009D02*
X108071905Y-68209390D01*
X108071905Y-68209390D02*
X108024286Y-68161771D01*
X108024286Y-68161771D02*
X107976667Y-68066533D01*
X107976667Y-68066533D02*
X107976667Y-67971295D01*
X107976667Y-67971295D02*
X108024286Y-67876057D01*
X108024286Y-67876057D02*
X108071905Y-67828438D01*
X108071905Y-67828438D02*
X108167143Y-67780819D01*
X108167143Y-67780819D02*
X108405238Y-67780819D01*
X108405238Y-67780819D02*
X108548095Y-67828438D01*
X108881429Y-67780819D02*
X109119524Y-68780819D01*
X109119524Y-68780819D02*
X109310000Y-68066533D01*
X109310000Y-68066533D02*
X109500476Y-68780819D01*
X109500476Y-68780819D02*
X109738572Y-67780819D01*
X110643333Y-68780819D02*
X110071905Y-68780819D01*
X110357619Y-68780819D02*
X110357619Y-67780819D01*
X110357619Y-67780819D02*
X110262381Y-67923676D01*
X110262381Y-67923676D02*
X110167143Y-68018914D01*
X110167143Y-68018914D02*
X110071905Y-68066533D01*
X159619376Y-49152800D02*
X159762233Y-49200419D01*
X159762233Y-49200419D02*
X160000328Y-49200419D01*
X160000328Y-49200419D02*
X160095566Y-49152800D01*
X160095566Y-49152800D02*
X160143185Y-49105180D01*
X160143185Y-49105180D02*
X160190804Y-49009942D01*
X160190804Y-49009942D02*
X160190804Y-48914704D01*
X160190804Y-48914704D02*
X160143185Y-48819466D01*
X160143185Y-48819466D02*
X160095566Y-48771847D01*
X160095566Y-48771847D02*
X160000328Y-48724228D01*
X160000328Y-48724228D02*
X159809852Y-48676609D01*
X159809852Y-48676609D02*
X159714614Y-48628990D01*
X159714614Y-48628990D02*
X159666995Y-48581371D01*
X159666995Y-48581371D02*
X159619376Y-48486133D01*
X159619376Y-48486133D02*
X159619376Y-48390895D01*
X159619376Y-48390895D02*
X159666995Y-48295657D01*
X159666995Y-48295657D02*
X159714614Y-48248038D01*
X159714614Y-48248038D02*
X159809852Y-48200419D01*
X159809852Y-48200419D02*
X160047947Y-48200419D01*
X160047947Y-48200419D02*
X160190804Y-48248038D01*
X160524138Y-48200419D02*
X160762233Y-49200419D01*
X160762233Y-49200419D02*
X160952709Y-48486133D01*
X160952709Y-48486133D02*
X161143185Y-49200419D01*
X161143185Y-49200419D02*
X161381281Y-48200419D01*
X162286042Y-49200419D02*
X161714614Y-49200419D01*
X162000328Y-49200419D02*
X162000328Y-48200419D01*
X162000328Y-48200419D02*
X161905090Y-48343276D01*
X161905090Y-48343276D02*
X161809852Y-48438514D01*
X161809852Y-48438514D02*
X161714614Y-48486133D01*
X162619376Y-48200419D02*
X163238423Y-48200419D01*
X163238423Y-48200419D02*
X162905090Y-48581371D01*
X162905090Y-48581371D02*
X163047947Y-48581371D01*
X163047947Y-48581371D02*
X163143185Y-48628990D01*
X163143185Y-48628990D02*
X163190804Y-48676609D01*
X163190804Y-48676609D02*
X163238423Y-48771847D01*
X163238423Y-48771847D02*
X163238423Y-49009942D01*
X163238423Y-49009942D02*
X163190804Y-49105180D01*
X163190804Y-49105180D02*
X163143185Y-49152800D01*
X163143185Y-49152800D02*
X163047947Y-49200419D01*
X163047947Y-49200419D02*
X162762233Y-49200419D01*
X162762233Y-49200419D02*
X162666995Y-49152800D01*
X162666995Y-49152800D02*
X162619376Y-49105180D01*
X107886667Y-106833200D02*
X108029524Y-106880819D01*
X108029524Y-106880819D02*
X108267619Y-106880819D01*
X108267619Y-106880819D02*
X108362857Y-106833200D01*
X108362857Y-106833200D02*
X108410476Y-106785580D01*
X108410476Y-106785580D02*
X108458095Y-106690342D01*
X108458095Y-106690342D02*
X108458095Y-106595104D01*
X108458095Y-106595104D02*
X108410476Y-106499866D01*
X108410476Y-106499866D02*
X108362857Y-106452247D01*
X108362857Y-106452247D02*
X108267619Y-106404628D01*
X108267619Y-106404628D02*
X108077143Y-106357009D01*
X108077143Y-106357009D02*
X107981905Y-106309390D01*
X107981905Y-106309390D02*
X107934286Y-106261771D01*
X107934286Y-106261771D02*
X107886667Y-106166533D01*
X107886667Y-106166533D02*
X107886667Y-106071295D01*
X107886667Y-106071295D02*
X107934286Y-105976057D01*
X107934286Y-105976057D02*
X107981905Y-105928438D01*
X107981905Y-105928438D02*
X108077143Y-105880819D01*
X108077143Y-105880819D02*
X108315238Y-105880819D01*
X108315238Y-105880819D02*
X108458095Y-105928438D01*
X108791429Y-105880819D02*
X109029524Y-106880819D01*
X109029524Y-106880819D02*
X109220000Y-106166533D01*
X109220000Y-106166533D02*
X109410476Y-106880819D01*
X109410476Y-106880819D02*
X109648572Y-105880819D01*
X110458095Y-106214152D02*
X110458095Y-106880819D01*
X110220000Y-105833200D02*
X109981905Y-106547485D01*
X109981905Y-106547485D02*
X110600952Y-106547485D01*
X109881905Y-120628448D02*
X109881905Y-119628448D01*
X109881905Y-119628448D02*
X110120000Y-119628448D01*
X110120000Y-119628448D02*
X110262857Y-119676067D01*
X110262857Y-119676067D02*
X110358095Y-119771305D01*
X110358095Y-119771305D02*
X110405714Y-119866543D01*
X110405714Y-119866543D02*
X110453333Y-120057019D01*
X110453333Y-120057019D02*
X110453333Y-120199876D01*
X110453333Y-120199876D02*
X110405714Y-120390352D01*
X110405714Y-120390352D02*
X110358095Y-120485590D01*
X110358095Y-120485590D02*
X110262857Y-120580829D01*
X110262857Y-120580829D02*
X110120000Y-120628448D01*
X110120000Y-120628448D02*
X109881905Y-120628448D01*
X111310476Y-119961781D02*
X111310476Y-120628448D01*
X111072381Y-119580829D02*
X110834286Y-120295114D01*
X110834286Y-120295114D02*
X111453333Y-120295114D01*
X107288095Y-122954819D02*
X107288095Y-121954819D01*
X107859523Y-122954819D02*
X107430952Y-122383390D01*
X107859523Y-121954819D02*
X107288095Y-122526247D01*
X128555714Y-120628448D02*
X128555714Y-119628448D01*
X128555714Y-119628448D02*
X128793809Y-119628448D01*
X128793809Y-119628448D02*
X128936666Y-119676067D01*
X128936666Y-119676067D02*
X129031904Y-119771305D01*
X129031904Y-119771305D02*
X129079523Y-119866543D01*
X129079523Y-119866543D02*
X129127142Y-120057019D01*
X129127142Y-120057019D02*
X129127142Y-120199876D01*
X129127142Y-120199876D02*
X129079523Y-120390352D01*
X129079523Y-120390352D02*
X129031904Y-120485590D01*
X129031904Y-120485590D02*
X128936666Y-120580829D01*
X128936666Y-120580829D02*
X128793809Y-120628448D01*
X128793809Y-120628448D02*
X128555714Y-120628448D01*
X130079523Y-120628448D02*
X129508095Y-120628448D01*
X129793809Y-120628448D02*
X129793809Y-119628448D01*
X129793809Y-119628448D02*
X129698571Y-119771305D01*
X129698571Y-119771305D02*
X129603333Y-119866543D01*
X129603333Y-119866543D02*
X129508095Y-119914162D01*
X130460476Y-119723686D02*
X130508095Y-119676067D01*
X130508095Y-119676067D02*
X130603333Y-119628448D01*
X130603333Y-119628448D02*
X130841428Y-119628448D01*
X130841428Y-119628448D02*
X130936666Y-119676067D01*
X130936666Y-119676067D02*
X130984285Y-119723686D01*
X130984285Y-119723686D02*
X131031904Y-119818924D01*
X131031904Y-119818924D02*
X131031904Y-119914162D01*
X131031904Y-119914162D02*
X130984285Y-120057019D01*
X130984285Y-120057019D02*
X130412857Y-120628448D01*
X130412857Y-120628448D02*
X131031904Y-120628448D01*
X126438095Y-122954819D02*
X126438095Y-121954819D01*
X127009523Y-122954819D02*
X126580952Y-122383390D01*
X127009523Y-121954819D02*
X126438095Y-122526247D01*
X124095476Y-68733200D02*
X124238333Y-68780819D01*
X124238333Y-68780819D02*
X124476428Y-68780819D01*
X124476428Y-68780819D02*
X124571666Y-68733200D01*
X124571666Y-68733200D02*
X124619285Y-68685580D01*
X124619285Y-68685580D02*
X124666904Y-68590342D01*
X124666904Y-68590342D02*
X124666904Y-68495104D01*
X124666904Y-68495104D02*
X124619285Y-68399866D01*
X124619285Y-68399866D02*
X124571666Y-68352247D01*
X124571666Y-68352247D02*
X124476428Y-68304628D01*
X124476428Y-68304628D02*
X124285952Y-68257009D01*
X124285952Y-68257009D02*
X124190714Y-68209390D01*
X124190714Y-68209390D02*
X124143095Y-68161771D01*
X124143095Y-68161771D02*
X124095476Y-68066533D01*
X124095476Y-68066533D02*
X124095476Y-67971295D01*
X124095476Y-67971295D02*
X124143095Y-67876057D01*
X124143095Y-67876057D02*
X124190714Y-67828438D01*
X124190714Y-67828438D02*
X124285952Y-67780819D01*
X124285952Y-67780819D02*
X124524047Y-67780819D01*
X124524047Y-67780819D02*
X124666904Y-67828438D01*
X125000238Y-67780819D02*
X125238333Y-68780819D01*
X125238333Y-68780819D02*
X125428809Y-68066533D01*
X125428809Y-68066533D02*
X125619285Y-68780819D01*
X125619285Y-68780819D02*
X125857381Y-67780819D01*
X126762142Y-68780819D02*
X126190714Y-68780819D01*
X126476428Y-68780819D02*
X126476428Y-67780819D01*
X126476428Y-67780819D02*
X126381190Y-67923676D01*
X126381190Y-67923676D02*
X126285952Y-68018914D01*
X126285952Y-68018914D02*
X126190714Y-68066533D01*
X127381190Y-67780819D02*
X127476428Y-67780819D01*
X127476428Y-67780819D02*
X127571666Y-67828438D01*
X127571666Y-67828438D02*
X127619285Y-67876057D01*
X127619285Y-67876057D02*
X127666904Y-67971295D01*
X127666904Y-67971295D02*
X127714523Y-68161771D01*
X127714523Y-68161771D02*
X127714523Y-68399866D01*
X127714523Y-68399866D02*
X127666904Y-68590342D01*
X127666904Y-68590342D02*
X127619285Y-68685580D01*
X127619285Y-68685580D02*
X127571666Y-68733200D01*
X127571666Y-68733200D02*
X127476428Y-68780819D01*
X127476428Y-68780819D02*
X127381190Y-68780819D01*
X127381190Y-68780819D02*
X127285952Y-68733200D01*
X127285952Y-68733200D02*
X127238333Y-68685580D01*
X127238333Y-68685580D02*
X127190714Y-68590342D01*
X127190714Y-68590342D02*
X127143095Y-68399866D01*
X127143095Y-68399866D02*
X127143095Y-68161771D01*
X127143095Y-68161771D02*
X127190714Y-67971295D01*
X127190714Y-67971295D02*
X127238333Y-67876057D01*
X127238333Y-67876057D02*
X127285952Y-67828438D01*
X127285952Y-67828438D02*
X127381190Y-67780819D01*
X109531905Y-101628448D02*
X109531905Y-100628448D01*
X109531905Y-100628448D02*
X109770000Y-100628448D01*
X109770000Y-100628448D02*
X109912857Y-100676067D01*
X109912857Y-100676067D02*
X110008095Y-100771305D01*
X110008095Y-100771305D02*
X110055714Y-100866543D01*
X110055714Y-100866543D02*
X110103333Y-101057019D01*
X110103333Y-101057019D02*
X110103333Y-101199876D01*
X110103333Y-101199876D02*
X110055714Y-101390352D01*
X110055714Y-101390352D02*
X110008095Y-101485590D01*
X110008095Y-101485590D02*
X109912857Y-101580829D01*
X109912857Y-101580829D02*
X109770000Y-101628448D01*
X109770000Y-101628448D02*
X109531905Y-101628448D01*
X110436667Y-100628448D02*
X111055714Y-100628448D01*
X111055714Y-100628448D02*
X110722381Y-101009400D01*
X110722381Y-101009400D02*
X110865238Y-101009400D01*
X110865238Y-101009400D02*
X110960476Y-101057019D01*
X110960476Y-101057019D02*
X111008095Y-101104638D01*
X111008095Y-101104638D02*
X111055714Y-101199876D01*
X111055714Y-101199876D02*
X111055714Y-101437971D01*
X111055714Y-101437971D02*
X111008095Y-101533209D01*
X111008095Y-101533209D02*
X110960476Y-101580829D01*
X110960476Y-101580829D02*
X110865238Y-101628448D01*
X110865238Y-101628448D02*
X110579524Y-101628448D01*
X110579524Y-101628448D02*
X110484286Y-101580829D01*
X110484286Y-101580829D02*
X110436667Y-101533209D01*
X106938095Y-103954819D02*
X106938095Y-102954819D01*
X107509523Y-103954819D02*
X107080952Y-103383390D01*
X107509523Y-102954819D02*
X106938095Y-103526247D01*
X167381905Y-120628448D02*
X167381905Y-119628448D01*
X167381905Y-119628448D02*
X167620000Y-119628448D01*
X167620000Y-119628448D02*
X167762857Y-119676067D01*
X167762857Y-119676067D02*
X167858095Y-119771305D01*
X167858095Y-119771305D02*
X167905714Y-119866543D01*
X167905714Y-119866543D02*
X167953333Y-120057019D01*
X167953333Y-120057019D02*
X167953333Y-120199876D01*
X167953333Y-120199876D02*
X167905714Y-120390352D01*
X167905714Y-120390352D02*
X167858095Y-120485590D01*
X167858095Y-120485590D02*
X167762857Y-120580829D01*
X167762857Y-120580829D02*
X167620000Y-120628448D01*
X167620000Y-120628448D02*
X167381905Y-120628448D01*
X168810476Y-119628448D02*
X168620000Y-119628448D01*
X168620000Y-119628448D02*
X168524762Y-119676067D01*
X168524762Y-119676067D02*
X168477143Y-119723686D01*
X168477143Y-119723686D02*
X168381905Y-119866543D01*
X168381905Y-119866543D02*
X168334286Y-120057019D01*
X168334286Y-120057019D02*
X168334286Y-120437971D01*
X168334286Y-120437971D02*
X168381905Y-120533209D01*
X168381905Y-120533209D02*
X168429524Y-120580829D01*
X168429524Y-120580829D02*
X168524762Y-120628448D01*
X168524762Y-120628448D02*
X168715238Y-120628448D01*
X168715238Y-120628448D02*
X168810476Y-120580829D01*
X168810476Y-120580829D02*
X168858095Y-120533209D01*
X168858095Y-120533209D02*
X168905714Y-120437971D01*
X168905714Y-120437971D02*
X168905714Y-120199876D01*
X168905714Y-120199876D02*
X168858095Y-120104638D01*
X168858095Y-120104638D02*
X168810476Y-120057019D01*
X168810476Y-120057019D02*
X168715238Y-120009400D01*
X168715238Y-120009400D02*
X168524762Y-120009400D01*
X168524762Y-120009400D02*
X168429524Y-120057019D01*
X168429524Y-120057019D02*
X168381905Y-120104638D01*
X168381905Y-120104638D02*
X168334286Y-120199876D01*
X164788095Y-122954819D02*
X164788095Y-121954819D01*
X165359523Y-122954819D02*
X164930952Y-122383390D01*
X165359523Y-121954819D02*
X164788095Y-122526247D01*
X126460476Y-87783200D02*
X126603333Y-87830819D01*
X126603333Y-87830819D02*
X126841428Y-87830819D01*
X126841428Y-87830819D02*
X126936666Y-87783200D01*
X126936666Y-87783200D02*
X126984285Y-87735580D01*
X126984285Y-87735580D02*
X127031904Y-87640342D01*
X127031904Y-87640342D02*
X127031904Y-87545104D01*
X127031904Y-87545104D02*
X126984285Y-87449866D01*
X126984285Y-87449866D02*
X126936666Y-87402247D01*
X126936666Y-87402247D02*
X126841428Y-87354628D01*
X126841428Y-87354628D02*
X126650952Y-87307009D01*
X126650952Y-87307009D02*
X126555714Y-87259390D01*
X126555714Y-87259390D02*
X126508095Y-87211771D01*
X126508095Y-87211771D02*
X126460476Y-87116533D01*
X126460476Y-87116533D02*
X126460476Y-87021295D01*
X126460476Y-87021295D02*
X126508095Y-86926057D01*
X126508095Y-86926057D02*
X126555714Y-86878438D01*
X126555714Y-86878438D02*
X126650952Y-86830819D01*
X126650952Y-86830819D02*
X126889047Y-86830819D01*
X126889047Y-86830819D02*
X127031904Y-86878438D01*
X127365238Y-86830819D02*
X127603333Y-87830819D01*
X127603333Y-87830819D02*
X127793809Y-87116533D01*
X127793809Y-87116533D02*
X127984285Y-87830819D01*
X127984285Y-87830819D02*
X128222381Y-86830819D01*
X129127142Y-87830819D02*
X128555714Y-87830819D01*
X128841428Y-87830819D02*
X128841428Y-86830819D01*
X128841428Y-86830819D02*
X128746190Y-86973676D01*
X128746190Y-86973676D02*
X128650952Y-87068914D01*
X128650952Y-87068914D02*
X128555714Y-87116533D01*
X130079523Y-87830819D02*
X129508095Y-87830819D01*
X129793809Y-87830819D02*
X129793809Y-86830819D01*
X129793809Y-86830819D02*
X129698571Y-86973676D01*
X129698571Y-86973676D02*
X129603333Y-87068914D01*
X129603333Y-87068914D02*
X129508095Y-87116533D01*
X167031905Y-101628448D02*
X167031905Y-100628448D01*
X167031905Y-100628448D02*
X167270000Y-100628448D01*
X167270000Y-100628448D02*
X167412857Y-100676067D01*
X167412857Y-100676067D02*
X167508095Y-100771305D01*
X167508095Y-100771305D02*
X167555714Y-100866543D01*
X167555714Y-100866543D02*
X167603333Y-101057019D01*
X167603333Y-101057019D02*
X167603333Y-101199876D01*
X167603333Y-101199876D02*
X167555714Y-101390352D01*
X167555714Y-101390352D02*
X167508095Y-101485590D01*
X167508095Y-101485590D02*
X167412857Y-101580829D01*
X167412857Y-101580829D02*
X167270000Y-101628448D01*
X167270000Y-101628448D02*
X167031905Y-101628448D01*
X168508095Y-100628448D02*
X168031905Y-100628448D01*
X168031905Y-100628448D02*
X167984286Y-101104638D01*
X167984286Y-101104638D02*
X168031905Y-101057019D01*
X168031905Y-101057019D02*
X168127143Y-101009400D01*
X168127143Y-101009400D02*
X168365238Y-101009400D01*
X168365238Y-101009400D02*
X168460476Y-101057019D01*
X168460476Y-101057019D02*
X168508095Y-101104638D01*
X168508095Y-101104638D02*
X168555714Y-101199876D01*
X168555714Y-101199876D02*
X168555714Y-101437971D01*
X168555714Y-101437971D02*
X168508095Y-101533209D01*
X168508095Y-101533209D02*
X168460476Y-101580829D01*
X168460476Y-101580829D02*
X168365238Y-101628448D01*
X168365238Y-101628448D02*
X168127143Y-101628448D01*
X168127143Y-101628448D02*
X168031905Y-101580829D01*
X168031905Y-101580829D02*
X167984286Y-101533209D01*
X164438095Y-103954819D02*
X164438095Y-102954819D01*
X165009523Y-103954819D02*
X164580952Y-103383390D01*
X165009523Y-102954819D02*
X164438095Y-103526247D01*
X147681905Y-120628448D02*
X147681905Y-119628448D01*
X147681905Y-119628448D02*
X147920000Y-119628448D01*
X147920000Y-119628448D02*
X148062857Y-119676067D01*
X148062857Y-119676067D02*
X148158095Y-119771305D01*
X148158095Y-119771305D02*
X148205714Y-119866543D01*
X148205714Y-119866543D02*
X148253333Y-120057019D01*
X148253333Y-120057019D02*
X148253333Y-120199876D01*
X148253333Y-120199876D02*
X148205714Y-120390352D01*
X148205714Y-120390352D02*
X148158095Y-120485590D01*
X148158095Y-120485590D02*
X148062857Y-120580829D01*
X148062857Y-120580829D02*
X147920000Y-120628448D01*
X147920000Y-120628448D02*
X147681905Y-120628448D01*
X148729524Y-120628448D02*
X148920000Y-120628448D01*
X148920000Y-120628448D02*
X149015238Y-120580829D01*
X149015238Y-120580829D02*
X149062857Y-120533209D01*
X149062857Y-120533209D02*
X149158095Y-120390352D01*
X149158095Y-120390352D02*
X149205714Y-120199876D01*
X149205714Y-120199876D02*
X149205714Y-119818924D01*
X149205714Y-119818924D02*
X149158095Y-119723686D01*
X149158095Y-119723686D02*
X149110476Y-119676067D01*
X149110476Y-119676067D02*
X149015238Y-119628448D01*
X149015238Y-119628448D02*
X148824762Y-119628448D01*
X148824762Y-119628448D02*
X148729524Y-119676067D01*
X148729524Y-119676067D02*
X148681905Y-119723686D01*
X148681905Y-119723686D02*
X148634286Y-119818924D01*
X148634286Y-119818924D02*
X148634286Y-120057019D01*
X148634286Y-120057019D02*
X148681905Y-120152257D01*
X148681905Y-120152257D02*
X148729524Y-120199876D01*
X148729524Y-120199876D02*
X148824762Y-120247495D01*
X148824762Y-120247495D02*
X149015238Y-120247495D01*
X149015238Y-120247495D02*
X149110476Y-120199876D01*
X149110476Y-120199876D02*
X149158095Y-120152257D01*
X149158095Y-120152257D02*
X149205714Y-120057019D01*
X145088095Y-122954819D02*
X145088095Y-121954819D01*
X145659523Y-122954819D02*
X145230952Y-122383390D01*
X145659523Y-121954819D02*
X145088095Y-122526247D01*
X165036667Y-87783200D02*
X165179524Y-87830819D01*
X165179524Y-87830819D02*
X165417619Y-87830819D01*
X165417619Y-87830819D02*
X165512857Y-87783200D01*
X165512857Y-87783200D02*
X165560476Y-87735580D01*
X165560476Y-87735580D02*
X165608095Y-87640342D01*
X165608095Y-87640342D02*
X165608095Y-87545104D01*
X165608095Y-87545104D02*
X165560476Y-87449866D01*
X165560476Y-87449866D02*
X165512857Y-87402247D01*
X165512857Y-87402247D02*
X165417619Y-87354628D01*
X165417619Y-87354628D02*
X165227143Y-87307009D01*
X165227143Y-87307009D02*
X165131905Y-87259390D01*
X165131905Y-87259390D02*
X165084286Y-87211771D01*
X165084286Y-87211771D02*
X165036667Y-87116533D01*
X165036667Y-87116533D02*
X165036667Y-87021295D01*
X165036667Y-87021295D02*
X165084286Y-86926057D01*
X165084286Y-86926057D02*
X165131905Y-86878438D01*
X165131905Y-86878438D02*
X165227143Y-86830819D01*
X165227143Y-86830819D02*
X165465238Y-86830819D01*
X165465238Y-86830819D02*
X165608095Y-86878438D01*
X165941429Y-86830819D02*
X166179524Y-87830819D01*
X166179524Y-87830819D02*
X166370000Y-87116533D01*
X166370000Y-87116533D02*
X166560476Y-87830819D01*
X166560476Y-87830819D02*
X166798572Y-86830819D01*
X167655714Y-86830819D02*
X167179524Y-86830819D01*
X167179524Y-86830819D02*
X167131905Y-87307009D01*
X167131905Y-87307009D02*
X167179524Y-87259390D01*
X167179524Y-87259390D02*
X167274762Y-87211771D01*
X167274762Y-87211771D02*
X167512857Y-87211771D01*
X167512857Y-87211771D02*
X167608095Y-87259390D01*
X167608095Y-87259390D02*
X167655714Y-87307009D01*
X167655714Y-87307009D02*
X167703333Y-87402247D01*
X167703333Y-87402247D02*
X167703333Y-87640342D01*
X167703333Y-87640342D02*
X167655714Y-87735580D01*
X167655714Y-87735580D02*
X167608095Y-87783200D01*
X167608095Y-87783200D02*
X167512857Y-87830819D01*
X167512857Y-87830819D02*
X167274762Y-87830819D01*
X167274762Y-87830819D02*
X167179524Y-87783200D01*
X167179524Y-87783200D02*
X167131905Y-87735580D01*
X110031905Y-82628448D02*
X110031905Y-81628448D01*
X110031905Y-81628448D02*
X110270000Y-81628448D01*
X110270000Y-81628448D02*
X110412857Y-81676067D01*
X110412857Y-81676067D02*
X110508095Y-81771305D01*
X110508095Y-81771305D02*
X110555714Y-81866543D01*
X110555714Y-81866543D02*
X110603333Y-82057019D01*
X110603333Y-82057019D02*
X110603333Y-82199876D01*
X110603333Y-82199876D02*
X110555714Y-82390352D01*
X110555714Y-82390352D02*
X110508095Y-82485590D01*
X110508095Y-82485590D02*
X110412857Y-82580829D01*
X110412857Y-82580829D02*
X110270000Y-82628448D01*
X110270000Y-82628448D02*
X110031905Y-82628448D01*
X111555714Y-82628448D02*
X110984286Y-82628448D01*
X111270000Y-82628448D02*
X111270000Y-81628448D01*
X111270000Y-81628448D02*
X111174762Y-81771305D01*
X111174762Y-81771305D02*
X111079524Y-81866543D01*
X111079524Y-81866543D02*
X110984286Y-81914162D01*
X107438095Y-84954819D02*
X107438095Y-83954819D01*
X108009523Y-84954819D02*
X107580952Y-84383390D01*
X108009523Y-83954819D02*
X107438095Y-84526247D01*
X145986667Y-106833200D02*
X146129524Y-106880819D01*
X146129524Y-106880819D02*
X146367619Y-106880819D01*
X146367619Y-106880819D02*
X146462857Y-106833200D01*
X146462857Y-106833200D02*
X146510476Y-106785580D01*
X146510476Y-106785580D02*
X146558095Y-106690342D01*
X146558095Y-106690342D02*
X146558095Y-106595104D01*
X146558095Y-106595104D02*
X146510476Y-106499866D01*
X146510476Y-106499866D02*
X146462857Y-106452247D01*
X146462857Y-106452247D02*
X146367619Y-106404628D01*
X146367619Y-106404628D02*
X146177143Y-106357009D01*
X146177143Y-106357009D02*
X146081905Y-106309390D01*
X146081905Y-106309390D02*
X146034286Y-106261771D01*
X146034286Y-106261771D02*
X145986667Y-106166533D01*
X145986667Y-106166533D02*
X145986667Y-106071295D01*
X145986667Y-106071295D02*
X146034286Y-105976057D01*
X146034286Y-105976057D02*
X146081905Y-105928438D01*
X146081905Y-105928438D02*
X146177143Y-105880819D01*
X146177143Y-105880819D02*
X146415238Y-105880819D01*
X146415238Y-105880819D02*
X146558095Y-105928438D01*
X146891429Y-105880819D02*
X147129524Y-106880819D01*
X147129524Y-106880819D02*
X147320000Y-106166533D01*
X147320000Y-106166533D02*
X147510476Y-106880819D01*
X147510476Y-106880819D02*
X147748572Y-105880819D01*
X148177143Y-106880819D02*
X148367619Y-106880819D01*
X148367619Y-106880819D02*
X148462857Y-106833200D01*
X148462857Y-106833200D02*
X148510476Y-106785580D01*
X148510476Y-106785580D02*
X148605714Y-106642723D01*
X148605714Y-106642723D02*
X148653333Y-106452247D01*
X148653333Y-106452247D02*
X148653333Y-106071295D01*
X148653333Y-106071295D02*
X148605714Y-105976057D01*
X148605714Y-105976057D02*
X148558095Y-105928438D01*
X148558095Y-105928438D02*
X148462857Y-105880819D01*
X148462857Y-105880819D02*
X148272381Y-105880819D01*
X148272381Y-105880819D02*
X148177143Y-105928438D01*
X148177143Y-105928438D02*
X148129524Y-105976057D01*
X148129524Y-105976057D02*
X148081905Y-106071295D01*
X148081905Y-106071295D02*
X148081905Y-106309390D01*
X148081905Y-106309390D02*
X148129524Y-106404628D01*
X148129524Y-106404628D02*
X148177143Y-106452247D01*
X148177143Y-106452247D02*
X148272381Y-106499866D01*
X148272381Y-106499866D02*
X148462857Y-106499866D01*
X148462857Y-106499866D02*
X148558095Y-106452247D01*
X148558095Y-106452247D02*
X148605714Y-106404628D01*
X148605714Y-106404628D02*
X148653333Y-106309390D01*
X126460476Y-106833200D02*
X126603333Y-106880819D01*
X126603333Y-106880819D02*
X126841428Y-106880819D01*
X126841428Y-106880819D02*
X126936666Y-106833200D01*
X126936666Y-106833200D02*
X126984285Y-106785580D01*
X126984285Y-106785580D02*
X127031904Y-106690342D01*
X127031904Y-106690342D02*
X127031904Y-106595104D01*
X127031904Y-106595104D02*
X126984285Y-106499866D01*
X126984285Y-106499866D02*
X126936666Y-106452247D01*
X126936666Y-106452247D02*
X126841428Y-106404628D01*
X126841428Y-106404628D02*
X126650952Y-106357009D01*
X126650952Y-106357009D02*
X126555714Y-106309390D01*
X126555714Y-106309390D02*
X126508095Y-106261771D01*
X126508095Y-106261771D02*
X126460476Y-106166533D01*
X126460476Y-106166533D02*
X126460476Y-106071295D01*
X126460476Y-106071295D02*
X126508095Y-105976057D01*
X126508095Y-105976057D02*
X126555714Y-105928438D01*
X126555714Y-105928438D02*
X126650952Y-105880819D01*
X126650952Y-105880819D02*
X126889047Y-105880819D01*
X126889047Y-105880819D02*
X127031904Y-105928438D01*
X127365238Y-105880819D02*
X127603333Y-106880819D01*
X127603333Y-106880819D02*
X127793809Y-106166533D01*
X127793809Y-106166533D02*
X127984285Y-106880819D01*
X127984285Y-106880819D02*
X128222381Y-105880819D01*
X129127142Y-106880819D02*
X128555714Y-106880819D01*
X128841428Y-106880819D02*
X128841428Y-105880819D01*
X128841428Y-105880819D02*
X128746190Y-106023676D01*
X128746190Y-106023676D02*
X128650952Y-106118914D01*
X128650952Y-106118914D02*
X128555714Y-106166533D01*
X129508095Y-105976057D02*
X129555714Y-105928438D01*
X129555714Y-105928438D02*
X129650952Y-105880819D01*
X129650952Y-105880819D02*
X129889047Y-105880819D01*
X129889047Y-105880819D02*
X129984285Y-105928438D01*
X129984285Y-105928438D02*
X130031904Y-105976057D01*
X130031904Y-105976057D02*
X130079523Y-106071295D01*
X130079523Y-106071295D02*
X130079523Y-106166533D01*
X130079523Y-106166533D02*
X130031904Y-106309390D01*
X130031904Y-106309390D02*
X129460476Y-106880819D01*
X129460476Y-106880819D02*
X130079523Y-106880819D01*
X128405714Y-101628448D02*
X128405714Y-100628448D01*
X128405714Y-100628448D02*
X128643809Y-100628448D01*
X128643809Y-100628448D02*
X128786666Y-100676067D01*
X128786666Y-100676067D02*
X128881904Y-100771305D01*
X128881904Y-100771305D02*
X128929523Y-100866543D01*
X128929523Y-100866543D02*
X128977142Y-101057019D01*
X128977142Y-101057019D02*
X128977142Y-101199876D01*
X128977142Y-101199876D02*
X128929523Y-101390352D01*
X128929523Y-101390352D02*
X128881904Y-101485590D01*
X128881904Y-101485590D02*
X128786666Y-101580829D01*
X128786666Y-101580829D02*
X128643809Y-101628448D01*
X128643809Y-101628448D02*
X128405714Y-101628448D01*
X129929523Y-101628448D02*
X129358095Y-101628448D01*
X129643809Y-101628448D02*
X129643809Y-100628448D01*
X129643809Y-100628448D02*
X129548571Y-100771305D01*
X129548571Y-100771305D02*
X129453333Y-100866543D01*
X129453333Y-100866543D02*
X129358095Y-100914162D01*
X130881904Y-101628448D02*
X130310476Y-101628448D01*
X130596190Y-101628448D02*
X130596190Y-100628448D01*
X130596190Y-100628448D02*
X130500952Y-100771305D01*
X130500952Y-100771305D02*
X130405714Y-100866543D01*
X130405714Y-100866543D02*
X130310476Y-100914162D01*
X126288095Y-103954819D02*
X126288095Y-102954819D01*
X126859523Y-103954819D02*
X126430952Y-103383390D01*
X126859523Y-102954819D02*
X126288095Y-103526247D01*
X107886667Y-87783200D02*
X108029524Y-87830819D01*
X108029524Y-87830819D02*
X108267619Y-87830819D01*
X108267619Y-87830819D02*
X108362857Y-87783200D01*
X108362857Y-87783200D02*
X108410476Y-87735580D01*
X108410476Y-87735580D02*
X108458095Y-87640342D01*
X108458095Y-87640342D02*
X108458095Y-87545104D01*
X108458095Y-87545104D02*
X108410476Y-87449866D01*
X108410476Y-87449866D02*
X108362857Y-87402247D01*
X108362857Y-87402247D02*
X108267619Y-87354628D01*
X108267619Y-87354628D02*
X108077143Y-87307009D01*
X108077143Y-87307009D02*
X107981905Y-87259390D01*
X107981905Y-87259390D02*
X107934286Y-87211771D01*
X107934286Y-87211771D02*
X107886667Y-87116533D01*
X107886667Y-87116533D02*
X107886667Y-87021295D01*
X107886667Y-87021295D02*
X107934286Y-86926057D01*
X107934286Y-86926057D02*
X107981905Y-86878438D01*
X107981905Y-86878438D02*
X108077143Y-86830819D01*
X108077143Y-86830819D02*
X108315238Y-86830819D01*
X108315238Y-86830819D02*
X108458095Y-86878438D01*
X108791429Y-86830819D02*
X109029524Y-87830819D01*
X109029524Y-87830819D02*
X109220000Y-87116533D01*
X109220000Y-87116533D02*
X109410476Y-87830819D01*
X109410476Y-87830819D02*
X109648572Y-86830819D01*
X109934286Y-86830819D02*
X110553333Y-86830819D01*
X110553333Y-86830819D02*
X110220000Y-87211771D01*
X110220000Y-87211771D02*
X110362857Y-87211771D01*
X110362857Y-87211771D02*
X110458095Y-87259390D01*
X110458095Y-87259390D02*
X110505714Y-87307009D01*
X110505714Y-87307009D02*
X110553333Y-87402247D01*
X110553333Y-87402247D02*
X110553333Y-87640342D01*
X110553333Y-87640342D02*
X110505714Y-87735580D01*
X110505714Y-87735580D02*
X110458095Y-87783200D01*
X110458095Y-87783200D02*
X110362857Y-87830819D01*
X110362857Y-87830819D02*
X110077143Y-87830819D01*
X110077143Y-87830819D02*
X109981905Y-87783200D01*
X109981905Y-87783200D02*
X109934286Y-87735580D01*
%TO.C,SW14*%
D12*
X100990100Y-51371200D02*
X101590100Y-51371200D01*
X101290100Y-51671200D02*
X100990100Y-51371200D01*
X101590100Y-51371200D02*
X101290100Y-51671200D01*
X102690100Y-49571200D02*
X102690100Y-61371200D01*
X106790100Y-49571200D02*
X102690100Y-49571200D01*
X106790100Y-61371200D02*
X102690100Y-61371200D01*
X108290100Y-55471200D02*
X109290100Y-55471200D01*
X108790100Y-54971200D02*
X108790100Y-55971200D01*
X110790100Y-49571200D02*
X114890100Y-49571200D01*
X114890100Y-49571200D02*
X114890100Y-51971200D01*
X114890100Y-54171200D02*
X114890100Y-56771200D01*
X114890100Y-58971200D02*
X114890100Y-61371200D01*
X114890100Y-61371200D02*
X110790100Y-61371200D01*
X111790100Y-55471200D02*
G75*
G02*
X105790100Y-55471200I-3000000J0D01*
G01*
X105790100Y-55471200D02*
G75*
G02*
X111790100Y-55471200I3000000J0D01*
G01*
%TO.C,D7*%
X148713629Y-84500000D02*
X148600000Y-84500000D01*
X151366371Y-84500000D02*
G75*
G02*
X148713629Y-84500000I-1326371J0D01*
G01*
X148713629Y-84500000D02*
G75*
G02*
X151366371Y-84500000I1326371J0D01*
G01*
%TO.C,SW8*%
X140335000Y-88265000D02*
X154305000Y-88265000D01*
X140335000Y-102235000D02*
X140335000Y-88265000D01*
X154305000Y-88265000D02*
X154305000Y-102235000D01*
X154305000Y-102235000D02*
X140335000Y-102235000D01*
%TO.C,SW6*%
X159385000Y-107315000D02*
X173355000Y-107315000D01*
X159385000Y-121285000D02*
X159385000Y-107315000D01*
X173355000Y-107315000D02*
X173355000Y-121285000D01*
X173355000Y-121285000D02*
X159385000Y-121285000D01*
%TO.C,SW2*%
X159385000Y-69215000D02*
X173355000Y-69215000D01*
X159385000Y-83185000D02*
X159385000Y-69215000D01*
X173355000Y-69215000D02*
X173355000Y-83185000D01*
X173355000Y-83185000D02*
X159385000Y-83185000D01*
%TO.C,D10*%
X129713629Y-84500000D02*
X129600000Y-84500000D01*
X132366371Y-84500000D02*
G75*
G02*
X129713629Y-84500000I-1326371J0D01*
G01*
X129713629Y-84500000D02*
G75*
G02*
X132366371Y-84500000I1326371J0D01*
G01*
%TO.C,D2*%
X167713629Y-84500000D02*
X167600000Y-84500000D01*
X170366371Y-84500000D02*
G75*
G02*
X167713629Y-84500000I-1326371J0D01*
G01*
X167713629Y-84500000D02*
G75*
G02*
X170366371Y-84500000I1326371J0D01*
G01*
%TO.C,U1*%
D13*
X128475000Y-39880000D02*
X128475000Y-56880000D01*
X130475000Y-58880000D02*
X144275000Y-58880000D01*
X132875000Y-36455970D02*
X141875000Y-36455970D01*
X132875000Y-43809270D02*
X132875000Y-36455970D01*
X141875000Y-36455970D02*
X141875000Y-43809270D01*
X141875000Y-43809270D02*
X132875000Y-43809270D01*
X144275000Y-37880910D02*
X130475000Y-37880910D01*
X146275000Y-56880000D02*
X146275000Y-39880000D01*
D12*
X128475000Y-39880000D02*
G75*
G02*
X130475000Y-37880000I2044612J-44612D01*
G01*
X130475000Y-58880000D02*
G75*
G02*
X128475000Y-56880000I44857J2044857D01*
G01*
X144275000Y-37880000D02*
G75*
G02*
X146275000Y-39880000I-44610J-2044610D01*
G01*
X146275000Y-56880000D02*
G75*
G02*
X144275000Y-58880000I-2000000J0D01*
G01*
D14*
X126502000Y-39580000D02*
G75*
G02*
X126248000Y-39580000I-127000J0D01*
G01*
X126248000Y-39580000D02*
G75*
G02*
X126502000Y-39580000I127000J0D01*
G01*
D15*
X128487285Y-39818295D02*
X128490333Y-39769527D01*
X128494397Y-39720506D01*
X128487285Y-39818295D01*
X146264492Y-56901574D02*
X146262713Y-56950850D01*
X146259665Y-56999618D01*
X146255601Y-57048639D01*
X146250268Y-57097407D01*
X146243664Y-57146175D01*
X146236044Y-57194690D01*
X146227153Y-57242950D01*
X146217248Y-57290955D01*
X146264492Y-56901574D01*
%TO.C,D8*%
D12*
X148563629Y-103500000D02*
X148450000Y-103500000D01*
X151216371Y-103500000D02*
G75*
G02*
X148563629Y-103500000I-1326371J0D01*
G01*
X148563629Y-103500000D02*
G75*
G02*
X151216371Y-103500000I1326371J0D01*
G01*
%TO.C,SW7*%
X140335000Y-69215000D02*
X154305000Y-69215000D01*
X140335000Y-83185000D02*
X140335000Y-69215000D01*
X154305000Y-69215000D02*
X154305000Y-83185000D01*
X154305000Y-83185000D02*
X140335000Y-83185000D01*
%TO.C,SW1*%
X102325000Y-69215000D02*
X116295000Y-69215000D01*
X102325000Y-83185000D02*
X102325000Y-69215000D01*
X116295000Y-69215000D02*
X116295000Y-83185000D01*
X116295000Y-83185000D02*
X102325000Y-83185000D01*
%TO.C,SW13*%
X158328900Y-51845600D02*
X158928900Y-51845600D01*
X158628900Y-52145600D02*
X158328900Y-51845600D01*
X158928900Y-51845600D02*
X158628900Y-52145600D01*
X160028900Y-50045600D02*
X160028900Y-61845600D01*
X164128900Y-50045600D02*
X160028900Y-50045600D01*
X164128900Y-61845600D02*
X160028900Y-61845600D01*
X165628900Y-55945600D02*
X166628900Y-55945600D01*
X166128900Y-55445600D02*
X166128900Y-56445600D01*
X168128900Y-50045600D02*
X172228900Y-50045600D01*
X172228900Y-50045600D02*
X172228900Y-52445600D01*
X172228900Y-54645600D02*
X172228900Y-57245600D01*
X172228900Y-59445600D02*
X172228900Y-61845600D01*
X172228900Y-61845600D02*
X168128900Y-61845600D01*
X169128900Y-55945600D02*
G75*
G02*
X163128900Y-55945600I-3000000J0D01*
G01*
X163128900Y-55945600D02*
G75*
G02*
X169128900Y-55945600I3000000J0D01*
G01*
%TO.C,SW4*%
X102235000Y-107315000D02*
X116205000Y-107315000D01*
X102235000Y-121285000D02*
X102235000Y-107315000D01*
X116205000Y-107315000D02*
X116205000Y-121285000D01*
X116205000Y-121285000D02*
X102235000Y-121285000D01*
%TO.C,D4*%
X110563629Y-122500000D02*
X110450000Y-122500000D01*
X113216371Y-122500000D02*
G75*
G02*
X110563629Y-122500000I-1326371J0D01*
G01*
X110563629Y-122500000D02*
G75*
G02*
X113216371Y-122500000I1326371J0D01*
G01*
%TO.C,D12*%
X129713629Y-122500000D02*
X129600000Y-122500000D01*
X132366371Y-122500000D02*
G75*
G02*
X129713629Y-122500000I-1326371J0D01*
G01*
X129713629Y-122500000D02*
G75*
G02*
X132366371Y-122500000I1326371J0D01*
G01*
%TO.C,SW10*%
X121285000Y-69215000D02*
X135255000Y-69215000D01*
X121285000Y-83185000D02*
X121285000Y-69215000D01*
X135255000Y-69215000D02*
X135255000Y-83185000D01*
X135255000Y-83185000D02*
X121285000Y-83185000D01*
%TO.C,D3*%
X110213629Y-103500000D02*
X110100000Y-103500000D01*
X112866371Y-103500000D02*
G75*
G02*
X110213629Y-103500000I-1326371J0D01*
G01*
X110213629Y-103500000D02*
G75*
G02*
X112866371Y-103500000I1326371J0D01*
G01*
%TO.C,D6*%
X168063629Y-122500000D02*
X167950000Y-122500000D01*
X170716371Y-122500000D02*
G75*
G02*
X168063629Y-122500000I-1326371J0D01*
G01*
X168063629Y-122500000D02*
G75*
G02*
X170716371Y-122500000I1326371J0D01*
G01*
%TO.C,SW11*%
X121285000Y-88265000D02*
X135255000Y-88265000D01*
X121285000Y-102235000D02*
X121285000Y-88265000D01*
X135255000Y-88265000D02*
X135255000Y-102235000D01*
X135255000Y-102235000D02*
X121285000Y-102235000D01*
%TO.C,D5*%
X167713629Y-103500000D02*
X167600000Y-103500000D01*
X170366371Y-103500000D02*
G75*
G02*
X167713629Y-103500000I-1326371J0D01*
G01*
X167713629Y-103500000D02*
G75*
G02*
X170366371Y-103500000I1326371J0D01*
G01*
%TO.C,D9*%
X148363629Y-122500000D02*
X148250000Y-122500000D01*
X151016371Y-122500000D02*
G75*
G02*
X148363629Y-122500000I-1326371J0D01*
G01*
X148363629Y-122500000D02*
G75*
G02*
X151016371Y-122500000I1326371J0D01*
G01*
%TO.C,SW5*%
X159385000Y-88265000D02*
X173355000Y-88265000D01*
X159385000Y-102235000D02*
X159385000Y-88265000D01*
X173355000Y-88265000D02*
X173355000Y-102235000D01*
X173355000Y-102235000D02*
X159385000Y-102235000D01*
%TO.C,D1*%
X110713629Y-84500000D02*
X110600000Y-84500000D01*
X113366371Y-84500000D02*
G75*
G02*
X110713629Y-84500000I-1326371J0D01*
G01*
X110713629Y-84500000D02*
G75*
G02*
X113366371Y-84500000I1326371J0D01*
G01*
%TO.C,SW9*%
X140335000Y-107315000D02*
X154305000Y-107315000D01*
X140335000Y-121285000D02*
X140335000Y-107315000D01*
X154305000Y-107315000D02*
X154305000Y-121285000D01*
X154305000Y-121285000D02*
X140335000Y-121285000D01*
%TO.C,SW12*%
X121285000Y-107315000D02*
X135255000Y-107315000D01*
X121285000Y-121285000D02*
X121285000Y-107315000D01*
X135255000Y-107315000D02*
X135255000Y-121285000D01*
X135255000Y-121285000D02*
X121285000Y-121285000D01*
%TO.C,D11*%
X129563629Y-103500000D02*
X129450000Y-103500000D01*
X132216371Y-103500000D02*
G75*
G02*
X129563629Y-103500000I-1326371J0D01*
G01*
X129563629Y-103500000D02*
G75*
G02*
X132216371Y-103500000I1326371J0D01*
G01*
%TO.C,SW3*%
X102235000Y-88265000D02*
X116205000Y-88265000D01*
X102235000Y-102235000D02*
X102235000Y-88265000D01*
X116205000Y-88265000D02*
X116205000Y-102235000D01*
X116205000Y-102235000D02*
X102235000Y-102235000D01*
%TD*%
M02*
