M48
; DRILL file KiCad 10.0.5 date 2026-08-29T19:09:31
; FORMAT={-:-/ absolute / metric / decimal}
; #@! TF.CreationDate,2026-08-29T19:09:31-04:00
; #@! TF.GenerationSoftware,Kicad,Pcbnew,10.0.5
; #@! TF.FileFunction,Plated,1,2,PTH
FMAT,2
METRIC
; #@! TA.AperFunction,Plated,PTH,ViaDrill
T1C0.300
; #@! TA.AperFunction,Plated,PTH,ComponentDrill
T2C1.000
; #@! TA.AperFunction,Plated,PTH,ComponentDrill
T3C1.500
%
G90
G05
T1
X108.19Y-102.66
X108.538Y-121.662
X108.679Y-83.671
X111.642Y-103.117
X111.826Y-121.674
X111.982Y-85.332
X126.7Y-102.394
X127.573Y-83.583
X127.584Y-121.555
X130.0Y-104.633
X130.807Y-83.514
X130.925Y-121.644
X144.2Y-57.905
X146.338Y-121.662
X147.005Y-103.117
X147.031Y-82.148
X148.8Y-121.389
X149.982Y-85.332
X150.706Y-102.66
X165.424Y-102.416
X165.679Y-83.671
X166.038Y-121.662
X168.982Y-85.332
X169.134Y-103.117
X169.355Y-123.355
T2
X101.29Y-52.971
X101.29Y-55.471
X101.29Y-57.971
X115.79Y-52.971
X115.79Y-57.971
X129.75Y-40.76
X129.75Y-43.3
X129.75Y-45.84
X129.75Y-48.38
X129.75Y-50.92
X129.75Y-53.46
X129.75Y-56.0
X145.0Y-40.76
X145.0Y-43.3
X145.0Y-45.84
X145.0Y-48.38
X145.0Y-50.92
X145.0Y-53.46
X145.0Y-56.0
X158.629Y-53.446
X158.629Y-55.946
X158.629Y-58.446
X173.129Y-53.446
X173.129Y-58.446
T3
X105.41Y-92.71
X105.41Y-111.76
X105.5Y-73.66
X111.76Y-90.17
X111.76Y-109.22
X111.85Y-71.12
X124.46Y-73.66
X124.46Y-92.71
X124.46Y-111.76
X130.81Y-71.12
X130.81Y-90.17
X130.81Y-109.22
X143.51Y-73.66
X143.51Y-92.71
X143.51Y-111.76
X149.86Y-71.12
X149.86Y-90.17
X149.86Y-109.22
X162.56Y-73.66
X162.56Y-92.71
X162.56Y-111.76
X168.91Y-71.12
X168.91Y-90.17
X168.91Y-109.22
T3
G00X108.14Y-49.871
M15
G01X109.44Y-49.871
M16
G05
G00X108.14Y-61.071
M15
G01X109.44Y-61.071
M16
G05
G00X165.479Y-50.346
M15
G01X166.779Y-50.346
M16
G05
G00X165.479Y-61.546
M15
G01X166.779Y-61.546
M16
G05
M30
