%TF.GenerationSoftware,KiCad,Pcbnew,10.0.5*%
%TF.CreationDate,2026-09-12T22:57:18-04:00*%
%TF.ProjectId,mk1,6d6b312e-6b69-4636-9164-5f7063625858,rev?*%
%TF.SameCoordinates,Original*%
%TF.FileFunction,Soldermask,Bot*%
%TF.FilePolarity,Negative*%
%FSLAX46Y46*%
G04 Gerber Fmt 4.6, Leading zero omitted, Abs format (unit mm)*
G04 Created by KiCad (PCBNEW 10.0.5) date 2026-09-12 22:57:18*
%MOMM*%
%LPD*%
G01*
G04 APERTURE LIST*
G04 Aperture macros list*
%AMRoundRect*
0 Rectangle with rounded corners*
0 $1 Rounding radius*
0 $2 $3 $4 $5 $6 $7 $8 $9 X,Y pos of 4 corners*
0 Add a 4 corners polygon primitive as box body*
4,1,4,$2,$3,$4,$5,$6,$7,$8,$9,$2,$3,0*
0 Add four circle primitives for the rounded corners*
1,1,$1+$1,$2,$3*
1,1,$1+$1,$4,$5*
1,1,$1+$1,$6,$7*
1,1,$1+$1,$8,$9*
0 Add four rect primitives between the rounded corners*
20,1,$1+$1,$2,$3,$4,$5,0*
20,1,$1+$1,$4,$5,$6,$7,0*
20,1,$1+$1,$6,$7,$8,$9,0*
20,1,$1+$1,$8,$9,$2,$3,0*%
G04 Aperture macros list end*
%ADD10R,2.000000X2.000000*%
%ADD11C,2.000000*%
%ADD12R,3.200000X2.000000*%
%ADD13RoundRect,0.250000X-0.550000X-0.550000X0.550000X-0.550000X0.550000X0.550000X-0.550000X0.550000X0*%
%ADD14C,1.600000*%
%ADD15C,1.700000*%
%ADD16C,4.000000*%
%ADD17C,2.200000*%
%ADD18R,3.500000X1.700000*%
%ADD19O,3.600000X1.700000*%
%ADD20O,3.700000X1.700000*%
G04 APERTURE END LIST*
D10*
%TO.C,SW14*%
X101290100Y-52971200D03*
D11*
X101290100Y-57971200D03*
X101290100Y-55471200D03*
D12*
X108790100Y-49871200D03*
X108790100Y-61071200D03*
D11*
X115790100Y-57971200D03*
X115790100Y-52971200D03*
%TD*%
D13*
%TO.C,D7*%
X147500000Y-84500000D03*
D14*
X150040000Y-84500000D03*
%TD*%
D15*
%TO.C,SW8*%
X142240000Y-95250000D03*
D16*
X147320000Y-95250000D03*
D15*
X152400000Y-95250000D03*
D17*
X149860000Y-90170000D03*
X143510000Y-92710000D03*
%TD*%
D15*
%TO.C,SW6*%
X161290000Y-114300000D03*
D16*
X166370000Y-114300000D03*
D15*
X171450000Y-114300000D03*
D17*
X168910000Y-109220000D03*
X162560000Y-111760000D03*
%TD*%
D15*
%TO.C,SW2*%
X161290000Y-76200000D03*
D16*
X166370000Y-76200000D03*
D15*
X171450000Y-76200000D03*
D17*
X168910000Y-71120000D03*
X162560000Y-73660000D03*
%TD*%
D13*
%TO.C,D10*%
X128500000Y-84500000D03*
D14*
X131040000Y-84500000D03*
%TD*%
D13*
%TO.C,D2*%
X166500000Y-84500000D03*
D14*
X169040000Y-84500000D03*
%TD*%
D18*
%TO.C,U1*%
X128750000Y-40760000D03*
D19*
X128750000Y-43300000D03*
X128750000Y-45840000D03*
X128750000Y-48380000D03*
X128750000Y-50920000D03*
X128750000Y-53460000D03*
X128750000Y-56000000D03*
X146000000Y-56000000D03*
X146000000Y-53460000D03*
X146000000Y-50920000D03*
D20*
X146000000Y-48380000D03*
X146000000Y-45840000D03*
X146000000Y-43300000D03*
X146000000Y-40760000D03*
%TD*%
D13*
%TO.C,D8*%
X147350000Y-103500000D03*
D14*
X149890000Y-103500000D03*
%TD*%
D15*
%TO.C,SW7*%
X142240000Y-76200000D03*
D16*
X147320000Y-76200000D03*
D15*
X152400000Y-76200000D03*
D17*
X149860000Y-71120000D03*
X143510000Y-73660000D03*
%TD*%
D15*
%TO.C,SW1*%
X104230000Y-76200000D03*
D16*
X109310000Y-76200000D03*
D15*
X114390000Y-76200000D03*
D17*
X111850000Y-71120000D03*
X105500000Y-73660000D03*
%TD*%
D10*
%TO.C,SW13*%
X158628900Y-53445600D03*
D11*
X158628900Y-58445600D03*
X158628900Y-55945600D03*
D12*
X166128900Y-50345600D03*
X166128900Y-61545600D03*
D11*
X173128900Y-58445600D03*
X173128900Y-53445600D03*
%TD*%
D15*
%TO.C,SW4*%
X104140000Y-114300000D03*
D16*
X109220000Y-114300000D03*
D15*
X114300000Y-114300000D03*
D17*
X111760000Y-109220000D03*
X105410000Y-111760000D03*
%TD*%
D13*
%TO.C,D4*%
X109350000Y-122500000D03*
D14*
X111890000Y-122500000D03*
%TD*%
D13*
%TO.C,D12*%
X128500000Y-122500000D03*
D14*
X131040000Y-122500000D03*
%TD*%
D15*
%TO.C,SW10*%
X123190000Y-76200000D03*
D16*
X128270000Y-76200000D03*
D15*
X133350000Y-76200000D03*
D17*
X130810000Y-71120000D03*
X124460000Y-73660000D03*
%TD*%
D13*
%TO.C,D3*%
X109000000Y-103500000D03*
D14*
X111540000Y-103500000D03*
%TD*%
D13*
%TO.C,D6*%
X166850000Y-122500000D03*
D14*
X169390000Y-122500000D03*
%TD*%
D15*
%TO.C,SW11*%
X123190000Y-95250000D03*
D16*
X128270000Y-95250000D03*
D15*
X133350000Y-95250000D03*
D17*
X130810000Y-90170000D03*
X124460000Y-92710000D03*
%TD*%
D13*
%TO.C,D5*%
X166500000Y-103500000D03*
D14*
X169040000Y-103500000D03*
%TD*%
D13*
%TO.C,D9*%
X147150000Y-122500000D03*
D14*
X149690000Y-122500000D03*
%TD*%
D15*
%TO.C,SW5*%
X161290000Y-95250000D03*
D16*
X166370000Y-95250000D03*
D15*
X171450000Y-95250000D03*
D17*
X168910000Y-90170000D03*
X162560000Y-92710000D03*
%TD*%
D13*
%TO.C,D1*%
X109500000Y-84500000D03*
D14*
X112040000Y-84500000D03*
%TD*%
D15*
%TO.C,SW9*%
X142240000Y-114300000D03*
D16*
X147320000Y-114300000D03*
D15*
X152400000Y-114300000D03*
D17*
X149860000Y-109220000D03*
X143510000Y-111760000D03*
%TD*%
D15*
%TO.C,SW12*%
X123190000Y-114300000D03*
D16*
X128270000Y-114300000D03*
D15*
X133350000Y-114300000D03*
D17*
X130810000Y-109220000D03*
X124460000Y-111760000D03*
%TD*%
D13*
%TO.C,D11*%
X128350000Y-103500000D03*
D14*
X130890000Y-103500000D03*
%TD*%
D15*
%TO.C,SW3*%
X104140000Y-95250000D03*
D16*
X109220000Y-95250000D03*
D15*
X114300000Y-95250000D03*
D17*
X111760000Y-90170000D03*
X105410000Y-92710000D03*
%TD*%
M02*
